<?xml version="1.0" encoding="utf-8"?>
<!-- Generator: Adobe Illustrator 16.0.4, SVG Export Plug-In . SVG Version: 6.00 Build 0)  -->
<!DOCTYPE svg PUBLIC "-//W3C//DTD SVG 1.1//EN" "http://www.w3.org/Graphics/SVG/1.1/DTD/svg11.dtd">
<svg version="1.1" id="Layer_1" xmlns="http://www.w3.org/2000/svg" xmlns:xlink="http://www.w3.org/1999/xlink" x="0px" y="0px"
	 width="300px" height="300px" viewBox="0 0 300 300" style="enable-background:new 0 0 300 300;" xml:space="preserve">
<style type="text/css">
<![CDATA[
	.st0{fill:#464646;}
	.st1{fill:#7B7B7B;}
	.st2{fill:#AAAAAA;}
	.st3{fill:#484848;}
	.st4{fill:#7C7B7B;}
	.st5{fill:#7C7C7C;}
	.st6{fill:#ABAAAA;}
	.st7{fill:#7D7D7D;}
	.st8{fill:#7E7E7E;}
	.st9{fill:#ADADAD;}
	.st10{fill:#7F7F7E;}
	.st11{fill:#7F7F7F;}
	.st12{fill:#AEAEAE;}
	.st13{fill:#AFAFAF;}
	.st14{fill:#141415;}
	.st15{fill:#161717;}
	.st16{fill:#4A4949;}
	.st17{fill:#4A4A4A;}
	.st18{fill:#4B4A4A;}
	.st19{fill:#4B4B4B;}
	.st20{fill:#4C4C4C;}
	.st21{fill:#4D4D4D;}
	.st22{fill:#4E4D4D;}
	.st23{fill:#818182;}
	.st24{fill:#828181;}
	.st25{fill:#828282;}
	.st26{fill:#B1B1B1;}
	.st27{fill:#838383;}
	.st28{fill:#848484;}
	.st29{fill:#858585;}
	.st30{fill:#B4B4B3;}
	.st31{fill:#B4B4B4;}
	.st32{fill:#B5B4B4;}
	.st33{fill:#878787;}
	.st34{fill:#1C1C1C;}
	.st35{fill:#888888;}
	.st36{fill:#888989;}
	.st37{fill:#B8B7B7;}
	.st38{fill:#B8B8B8;}
	.st39{fill:#B9B9B9;}
	.st40{fill:#1F1F1F;}
	.st41{fill:#EDEDED;}
	.st42{fill:#515050;}
	.st43{fill:#515151;}
	.st44{fill:#525252;}
	.st45{fill:#535252;}
	.st46{fill:#535253;}
	.st47{fill:#555454;}
	.st48{fill:#555555;}
	.st49{fill:#8A8A8A;}
	.st50{fill:#575757;}
	.st51{fill:#8B8B8B;}
	.st52{fill:#BAB9B9;}
	.st53{fill:#8D8D8D;}
	.st54{fill:#8E8E8E;}
	.st55{fill:#BEBDBD;}
	.st56{fill:#212121;}
	.st57{fill:#BFBEBE;}
	.st58{fill:#222222;}
	.st59{fill:#5A5A5A;}
	.st60{fill:#272728;}
	.st61{fill:#5B5B5B;}
	.st62{fill:#909090;}
	.st63{fill:#919191;}
	.st64{fill:#939393;}
	.st65{fill:#C3C3C3;}
	.st66{fill:#959595;}
	.st67{fill:#2A2A2A;}
	.st68{fill:#2B2B2B;}
	.st69{fill:#2C2C2C;}
	.st70{fill:#2D2D2D;}
	.st71{fill:#999898;}
	.st72{fill:#999999;}
	.st73{fill:#C8C8C8;}
	.st74{fill:#2F2F2F;}
	.st75{fill:#606060;}
	.st76{fill:#616161;}
	.st77{fill:#626262;}
	.st78{fill:#636363;}
	.st79{fill:#666666;}
	.st80{fill:#9A9A9A;}
	.st81{fill:#676767;}
	.st82{fill:#9B9B9A;}
	.st83{fill:#9C9C9C;}
	.st84{fill:#696968;}
	.st85{fill:#696969;}
	.st86{fill:#9D9D9D;}
	.st87{fill:#303030;}
	.st88{fill:#9F9E9E;}
	.st89{fill:#9F9F9F;}
	.st90{fill:#CECDCD;}
	.st91{fill:#CECECE;}
	.st92{fill:#313131;}
	.st93{fill:#CFCECE;}
	.st94{fill:#343434;}
	.st95{fill:#353535;}
	.st96{fill:#363636;}
	.st97{fill:#6A6969;}
	.st98{fill:#6A6A6A;}
	.st99{fill:#373737;}
	.st100{fill:#6B6A6A;}
	.st101{fill:#383838;}
	.st102{fill:#6C6C6C;}
	.st103{fill:#393939;}
	.st104{fill:#6D6C6C;}
	.st105{fill:#6D6D6D;}
	.st106{fill:#6F6E6E;}
	.st107{fill:#050606;}
	.st108{fill:#D4D4D4;}
	.st109{fill:#3A3A3A;}
	.st110{fill:#3B3B3B;}
	.st111{fill:#D6D5D5;}
	.st112{fill:#3C3C3C;}
	.st113{fill:#D7D7D7;}
	.st114{fill:#3D3D3D;}
	.st115{fill:#3F3F3F;}
	.st116{fill:#706F6F;}
	.st117{fill:#A09F9F;}
	.st118{fill:#717171;}
	.st119{fill:#A0A0A0;}
	.st120{fill:#727172;}
	.st121{fill:#727272;}
	.st122{fill:#A1A0A0;}
	.st123{fill:#A2A1A1;}
	.st124{fill:#A2A2A2;}
	.st125{fill:#747373;}
	.st126{fill:#747474;}
	.st127{fill:#A4A4A4;}
	.st128{fill:#767676;}
	.st129{fill:#A5A5A5;}
	.st130{fill:#DADADA;}
	.st131{fill:#787777;}
	.st132{fill:#787878;}
	.st133{fill:#A7A7A7;}
	.st134{fill:#DBDBDB;}
	.st135{fill:#797979;}
	.st136{fill:#0F0F0F;}
	.st137{fill:#DDDCDC;}
	.st138{fill:#404040;}
	.st139{fill:#DFDEDE;}
	.st140{fill:#424242;}
	.st141{fill:#454444;}
]]>
</style>
<g>
	<path class="st18" d="M159,297.2c-2.7,0-5.3,0-8,0c-0.6-1.1,0.8-1.2,1-1.9c-5.3,1.3-10-2.3-15.2-1.7c-1,0.1-2,0.2-2.9-0.2
		c-2.1-3.6-6-4.5-9.4-6.1c-1-0.5-3.2-1-2.3-1.8c3.8-3.7-1.2-3-2-3.8c-2.8-2.8-6.6-4.4-9.9-6.7c-1.3-0.9-2.2-2-1.5-3.7
		c2.3-0.9,4.1,1,6.2,1.2c3.1,2,6.2,3.7,10,4.3c2.6,0.4,5.4,1.6,6.9,3.7c3.2,4.4,7.9,5.1,12.7,5.7c2.4,0.3,5,0.1,5.8,3.5
		c0.3,1.6,2.3,1.8,3.8,1.8c1.5,0.1,3.1-0.3,3.6,1.7C157.3,294.2,157.9,295.8,159,297.2z"/>
	<path class="st99" d="M159,297.2c-1.5-0.9-4.1-1.3-2-4c0.7-1,1.7-1.9,2.8-1.9c5.9,0,10.2-3.8,15.3-5.9c1.7-0.8,3.5-2.3,5.4-1
		c1.8,1.2,1.4,3.1,0.7,4.8c-0.4,0.9-0.9,1.7-1.4,2.5c-1.1,1.3-1.8,4.6-3.9,0.8c-0.8-1.3-1.9-1.3-3-0.6c-2.9,1.9-6.5,2.6-8.9,5.2
		C162.3,297.2,160.7,297.2,159,297.2z"/>
	<path class="st136" d="M243.2,84.1c2.5,2.5,2.3,6.4,4.8,9c-0.4,2.3-1.3,4.4-2.2,6.5c-1.3,2.1-0.5,4.1-0.1,6.3
		c1.8,0.7,2.7-2.1,4.4-1.1c2.6,1.8,3,4.4,2.7,7.3c-0.3,2.8,0,4.9,3.6,2.5c1.7-1.1,2.4-0.4,1.7,1.5c-0.3,0.2-0.3,0.5-0.2,0.8
		c-0.4,2-0.4,4.2-2.1,5.7c-0.8,0.8-1.7,1.5-2.4,2.4c-3.1,3.2-7.3,3.6-11.3,4.1c-4.3,0.5-7,2.7-8.8,6.3c-1.2,2.5-1.1,4.2,2.4,4
		c1.2-0.1,2.4-0.1,2.6,1.5c-0.6,1.9-2,3.1-3.8,3.9c-7.1,0.5-10.6-2.2-10.7-9c-0.1-6.5-2-12.6-3.7-18.8c-1.9-3.9-4.1-7.6-5-12
		c-0.2-0.7-0.3-1.5-0.3-2.2c3.7-5.9-0.1-11.5-1.3-16.9c-1.3-5.4-2.5-11.3-6.9-15.5C203.3,60,196.2,52,188.8,44.2
		c-2-2.2-4.4-4.1-6-6.7c-0.9-1.6-2-3.6-4-3.3c-5,0.7-9-2.2-13.2-3.8c-7.1-2.6-14.3-3.9-21.9-3.2c-1.5,0.1-3.1,0.4-4.4-0.2
		c-5.7-2.8-11-0.9-16.3,1.2c-1.7,0.7-3.4,1.3-5.3,0.9c-2.1-0.5-3.7-1.7-4.1-3.9c-0.5-2.2,1-3.3,2.6-4.3c4.8-3.2,10.2-4.8,15.9-5.2
		c1-0.1,2.3-0.4,2.9,0.3c3.8,4.2,8,2.9,12.5,1.4c2.1-0.7,4.6-0.5,6.9,0.2c1.9,0.6,3.6,0.7,4.9-1.2c1.6-2.3,3.7-2.2,5.6-0.7
		c3.7,2.9,8.1,3.7,12.6,3.9c2.9,1,6.7,0.8,7.3,5.2c1.4,1.7,2.8,2.9,4.7,0.7c1.3-1.4,2.8-1.5,4.5-0.9c2.8,1.8,4.3,4.8,6.7,7
		c1.7,1.5,3.3,2.5,5.5,2.7c0.4,0.1,0.9,0.3,1.2,0.6c3.1,2.6,5.3,6.5,9.7,7.5c0.4,0.1,0.8,0.3,1.2,0.5c1.8,1.7,3.3,3.6,4.9,5.4
		c0.3,0.3,0.6,0.6,0.9,1c1.6,1.1,2.7,2.7,2.5,4.5c-0.3,4.2,1.6,7.6,3.3,11.1c1,2,2.2,4.1,2.5,6.4c0.3,3-0.1,6.7,5.2,4.5
		c1.8-0.7,2.8,1.2,3.2,3C241.4,80.7,241.2,82.9,243.2,84.1z"/>
	<path class="st34" d="M178,20.2c-4.9,1.6-9-0.2-12.9-2.9c-2.1-1.4-4.2-3.5-5.3,1c-0.5,2-2,1.6-3.6,1.1c-4.8-1.4-9.5-2.4-13.8,1.5
		c-1.4,1.3-2.6,0.5-3.9-0.7c-1.5-1.4-2.6-4.2-5-3.6c-4.1,0.9-8.7,0.4-12.3,2.9c-1.1,0.8-2.2,1.3-3.4,1.9c-1.6,0.7-4.4,1-3,4
		c1.2,2.4,3.3,3.3,5.8,2.4c2.6-1,5.4-1.8,7.9-2.8c3.2-1.3,6.1-1.2,9,0.2c5.1,2.4,10.3-0.3,15.6,0.7c6.8,1.3,13.3,3.1,19.5,6.1
		c1.4,0.6,2.7,1.6,4.2,1c4.1-1.5,5.7,1.1,7.1,4.2c-3.4,2-6-1.3-9.1-1.2c-2.2-0.7-4.3-1.6-6.4-2.6c-4.7-2.2-9.5-3.7-14.8-2.2
		c-2.8,0.8-6,0.6-8.9,0.1C133.1,29.2,122,32,111,35.2c-6,1.7-12.3,2.8-17.7,6.3c-1.2,1-2.3,1.9-3.7,2.6c-5.4,3.3-9.7,7.7-12.6,13.4
		c-0.4,0.9-0.9,1.7-1.5,2.4c-3.3,3.7-5.3,8.2-7.9,12.4c-4.4,9.6-6.4,19.9-8.5,30.1c-0.3,1.7,0,3.3,0.6,4.9c0.5,1.4,1,3.3,0,4.3
		c-3.2,3.1-1.3,5.6,0.5,8.2c5,7.3,5.9,15.9,7,24.2c0.6,4.6,2.6,9,2,13.8c-2.3,5.1-11.2,5.9-15.5,1c-1.3-1.4-2.4-2.4-4.1-1.6
		c-4.5,1.8-7.8,0.4-10.4-3.5c-0.3-0.4-0.5-0.8-0.6-1.2c-1.6-1-2.5-2.6-3.1-4.3c-0.7-1.8-0.5-3.7,0.8-5.2c8.4-9.5,8.3-13.5,5.8-22.8
		c-0.2-0.2-0.3-0.5-0.1-0.7c-0.5-1.4-0.7-2.9-1.1-4.3c-0.3-1.1-0.7-2.6,0-3.4c2.3-2.6,5-4.7,5.9-8.5c0.1-0.5,1.6-1.3,1-2.9
		C46,96.3,48,92,48.7,88.2c1.3-7.7,1.5-16.3,8.1-22.1c3.8-3.3,2.9-7.9,3.5-12c0.3-2.3,0.3-4.6,1-6.8c0.8-1.9,2.6-2.6,4.1-3.7
		c1.8-1.4,3.5-2.9,5.3-4.3c0.8-0.6,1.7-0.8,2.6-0.6c3.9,1.7,6.4,0.4,7.5-3.6c0.2-0.6-0.2,0.1,0.2-0.5c3.9-5.2,8.9-9.5,13.7-13.8
		c2.1-1.9,4.9-1.7,7.6-1.4c1.5-0.5,2.9-1.3,3.7-2.4c3.1-4.6,7.6-4.9,12.3-4.5c6.9,0.5,13.5-2.6,20.6-1.2c2.6,0.5,5.3,0.5,7.5,2.2
		c3.4,2.6,6.7,2.4,9.9-0.4c1-0.9,2.1-1.6,3.6-1.5c0.7,0.1,1.4,0.3,2,0.7c1,0.7,2.2,0.8,3.3,1.1c2.8,1.3,5.3,2.6,8.9,1.5
		C177.4,13.6,179.1,16,178,20.2z"/>
	<path class="st74" d="M223.9,225h-0.5l-0.4,0.1c-1.2-4.3,0.7-8.2,1.2-12.3c-3.5,6.9-7.9,13.4-12.3,19.8c-1.6,2.3-4.6,3.6-7.9,3.3
		c-0.7-0.3-1.3-0.8-1.6-1.5c-0.2-0.7-0.3-1.4-0.1-2.2c0.5-1.8,0.9-3.6,2.3-4.8c1.6-1.3,1.8-2.9,1-4.4c-2-3.6-1.1-6.9,0.6-10.3
		c1.2-2.5,2.3-5.1,2.8-7.9c1.1-2.4,1.4-5.2,3.2-7.3c1.9-1.5,4.7-1.6,6.2-3.9c0.5-0.7,1.3-1.1,2.2-0.7c1.1,0.5,1.1,1.6,0.8,2.6
		c-0.6,2.4-1.4,4.7-3,7.4c4.3-2.9,3.8-8,6.9-11c1.4,0.6,3.8-1.5,4.2,1.7c-0.2,2.9,0.5,5.8-0.4,8.6c-1.4,3.5-2.5,7.1-2.3,11
		C226.9,217.5,225.6,221.3,223.9,225z"/>
	<path class="st95" d="M61.9,47.1c-0.4,4.9-0.6,9.8-1.1,14.7c-0.1,1.2-0.8,2.6-1.7,3.5c-2.9,3.3-5,6.4-6.7,10.9
		c-2.6,7.1-1.7,14.5-4.4,21.3c-0.4,1.1,0.2,2.2,0.9,3.2c0.8,1.2,2.3,2.4,1.2,3.9c-1.2,1.5-2.5-1.1-3.9-0.6c-0.7,1.4,0.3,2.6,0.4,3.9
		c0.3,2.1,0.9,4.3-2.9,2.4c-2.2-1.1-2.8,1.4-2.7,3.2c0.2,2,1.2,3.8,0.7,5.9c-2.5-6.4-4.4-12.8,0.2-19.1c1-1.4,0.8-2.8,1-4.2
		c0.9-8.7,2.8-17.1,5.1-25.5c0.1-0.5,0.1-1.2,0.4-1.4c5.8-3.8,5.8-10.6,8.2-16.1C58.4,51,56,45.5,61.9,47.1z"/>
	<path class="st114" d="M85,229.1c-3-7-6-13.9-9.1-20.9c-3.8-3.3-2.7-7.9-3.2-12.1c-0.4-3.1-0.5-6.3-1.6-9.3c-0.6-2.2-0.3-4.5-1-6.7
		c-0.9-1.7,0-3.9-1.8-5.3c-1.2-0.5-2.5-1-2.9-2.5c-0.1-0.5,0-0.9,0.1-1.4c1.5-2,2.9-4.2,4.6-6.1c0.5,0,0.9,0.1,1.3,0.5
		c1.7,2.6,1.8,5.6,2.7,8.4c0.6,2.4,1.1,4.8,1.8,7.2c0.3,1.5,0.7,2.9,1.2,4.3c0.9,2.4,1.1,4.9,1.1,7.5c-0.2,2.9,0.8,5.7,1.2,8.5
		c0.2,0.4,0.3,0.9,0.4,1.3c0.2,0.6,0.2,1.3,0.6,1.8c2.2,2.8,3.6,5.8,2.3,9.4c0.7,1.8,1.8,3.3,3.4,4.4c1.2,2.2,1.8,4.9,4.1,6.5
		c2.8,3.4,5.3,7.3,10.8,5.6c2.8-0.5,3.3,2.4,5.2,3.3c2.2,4.2,7.5,5.9,9,10.6c0.1,0.5,0,0.9-0.2,1.3c-5.2,1.6-7.6,0.5-8.8-4.2
		c-0.6-2.3-2.2-3.6-4.1-4.6c-0.5-0.3-1-1.2-1.8-0.5c0.5,0.5,0.8,1,0.9,1.7c-2.8,3.6-4.7-0.5-6.9-1.1c-1.5-0.4-2.5-2.6-4.6-2.2
		C86.8,234,86.8,230.8,85,229.1z"/>
	<path class="st93" d="M71.9,186.3c3,5.6,1.4,11.9,3,17.8c0.4,1.4,0.2,2.9,1,4.2c-7.4-0.6-11.2-4.4-13.1-11.2
		c-2.2-7.9-2.9-16.4-8.9-22.8c-0.1-2.1,2-2.2,3-3.2c1.3-1.3,2.3-1,3.1,0.6c0.7,1.3,1,2.8,1.1,4.3c0.5,3.8,1.6,7,6.2,7.7
		C69.1,183.7,70.5,185.2,71.9,186.3z"/>
	<path class="st9" d="M247.9,145.1c0.3,3.1-1.1,6.1-2.5,8.4c-2.9,4.9-2,9.9-2.5,14.9c-0.5,5.4-0.9,11-5.9,14.6
		c-3.7-3.3-6.4-7.3-8.8-11.5c-0.5-2-0.6-4,0.2-6c2.2-2,4.3-4.1,7.4-4.7c0.7-0.1,1.5-0.3,1.7-0.8c1.5-4.2,5.6-7.1,6-11.9
		C244.2,146.1,245.5,144.9,247.9,145.1z"/>
	<path class="st95" d="M70,165.1c0.2,3-1.8,4.6-4,6.1c-2.2-0.7-4-1.9-5.7-3.5c-0.9-0.8-1.7-1.5-2.9-0.5c-0.4,0.3-0.7,0.5-1.1,0.6
		c-1.4,0.3-2.1,1.3-2.7,2.5c-0.6,1.1-1.4,1.8-2.7,0.8c-2.4-3.5-6.7-5.7-6.8-10.8c0-1.7-1.7-2.6-3.3-3.1c-0.5-1.4-2.8-2.1-1.7-4.2
		c0.8,0.2,2.3,0.2,2.3,0.5c1.2,5.8,5,2.6,7.8,2.2c2.4-0.3,4.9-2.2,5,2.5c0.1,2.4,3.7,1.9,4.8,2c2.9,0.1,6.9,2.5,8.7-2.2
		c3.4,0.7,1.7,3.6,2.5,5.5C70.5,164.2,70.4,164.7,70,165.1z"/>
	<path class="st58" d="M238,141.1c-0.3-0.2-0.5-0.5-0.8-0.5c-2-0.1-4.4,2-5.9-0.5c-1.3-2.3,0.4-4.3,1.6-6.3c2.1-3.7,5.1-5.1,9.2-5.7
		c3.8-0.6,8-0.7,10.9-3.8c0.9,0.8,1.1,1.9,1.1,3c-0.5,3.5-0.8,7-3,10c-0.7,1.6-1.5,3.3-2.2,4.9c-3.8,3.7-3.5-1-4.8-2.4
		c-1.6-1.2-3-1.2-4.1,0.6c-0.2,0.4-0.5,0.7-0.9,1C238.7,141.5,238.3,141.4,238,141.1z"/>
	<path class="st7" d="M161.2,13c-0.3-0.3-0.5-0.7-0.8-1c-0.7-0.1-1-0.6-1.2-1.2c-1.6-1.6-3.7-1.1-5.6-1.6c-1.9-0.3-3.5-1.2-5.1-2.3
		c-4.9-3.2-10-3-15.2-1C131.9,6.8,130.8,8,129,8c-5.3-0.4-10.5-0.6-15.8,0.6c-1.5-0.7-3-0.9-4.5,0c-2,1.2-3.6,0.7-5.1-0.9
		c-0.6-0.8-1.1-1.5-0.6-2.5c3.1-1.1,6.2,0.8,9.5-0.5c6.4-2.5,13.2-3.8,20-3.7c9,0.1,18,0.1,26.8,2.5c0.7,0.2,1.3,1,1.9,1.5
		c0.6,1.6,2.4,2.3,3,3.9C165.5,11.6,164.6,12.8,161.2,13z"/>
	<path class="st87" d="M243.2,84.1c-2.1,0.1-3-1-3.2-3c-0.1-1.6,0.3-3.4-1.5-4.4c-0.6-0.3-1,0.1-3.7,3.4c-4.6-7-5.7-15.3-9-22.7
		c-1-2.3-1-5.7-2.7-8.3c0.7-0.3,1.9,0.7,2.2-0.7c2.2-0.9,2.2,0.3,1.9,1.9c-0.5,6.8,2.8,11.9,7,16.8
		C238.5,72.1,242.4,77.3,243.2,84.1z"/>
	<path class="st3" d="M42,120.2c3.4,3.8,4.2,11.1,1.1,15.2c-1.8,2.4-2.6,4.4-1.4,7.2c0.6,1.5,0,3-1.8,1.7c-4.8-3.5-3.5,1.1-3.5,2.8
		c0,1.9,1.2,3.7,2.6,5.1c-0.4,0.4-0.8,0.4-1.2,0.1c-2.2,0-2.1-2.5-3.5-3.3c-0.3-3.3-1.1-6.7,0.9-9.8c0.7-0.9,1.2-1.8,2.4-2.3
		c2.6-1.1,4.4-1.9,2.9-6C39.4,128.1,40.3,123.6,42,120.2z"/>
	<path class="st111" d="M244.9,99.1c1-2,2-4,3-6c-0.5,3.8-0.9,7.5,3.1,10.2c3,2,3.9,6.2,8.1,7c1.5,0.3,1.1,2.4-1,5.9
		c-0.3-1.2-0.5-2.6-1.5-0.3c-0.6,1.2-1.2,3.2-3.1,2.1c-1.5-0.9-3.3-2.3-2.3-4.3c1.6-3.2,0.1-5.7-1.2-8.3
		C247.8,103.6,243.7,103.5,244.9,99.1z"/>
	<path class="st27" d="M229.1,172.1c2.9,3.5,6.1,6.7,7.9,11c-4.6,4.6-8.3,9.5-7,16.5c0.2,1,0.1,2-0.8,2.7c-0.1-3.4-0.1-6.7-0.2-10.1
		c0.8-6.1-1.9-11.9-1-18C228,173.3,228.4,172.6,229.1,172.1z"/>
	<path class="st125" d="M70.8,40.1c-1.6,1.5-3.2,2.9-4.7,4.4c-1.7,0.1-2.8-0.7-3.2-2.4c3.4-2.2,1.4-7.9,6-9.2c2.1-1.9,4.2-4,7.4-3.8
		c1.5,0.7,2.6,1.9,3.5,3.3c1.5,2.4,0.8,3.9-2,4.4C74,34.8,72,36.5,70.8,40.1z"/>
	<path class="st112" d="M178,20.2c-0.1-4-1.2-6.3-5.7-3.5c-3.6,2.3-5.4-2.3-8.4-2.6c-0.2-2.1,1.1-2.3,2.7-2.1c1-0.1,1.4-1.3,2.5-1.3
		c1.3,0,2.5,2,4,0.4c0.4,0.3,0.7,0.6,1.1,0.9c1.9,0.6,4.1,0.7,5.1,2.8c-0.8,2.7,1.8,0.8,2.3,1.7c1.7,1.8,5.4,1.3,5.7,4.8
		c0,0.5,0,0.9-0.2,1.3c-1,1-1.1,3.1-3.3,2.7C184.2,21,179,22.9,178,20.2z"/>
	<path class="st140" d="M207.1,35c-5.9,1.6-7.8-3.6-11-6.5c-0.9-0.9-1.5-2.2-2.2-3.3c-0.9-1.5-2.3-1.4-3.8-1.2
		c-1.3,0.2-3,0.4-3.3-1.7l0.2-0.2c1.3-0.9,1.7-3.2,3.9-2.9c5.4,4.5,11.3,8.5,15.8,14.1C207.6,33.7,207.6,34.3,207.1,35z"/>
	<path class="st52" d="M85,229.1c1.6,1.8,3.1,3.6,4.7,5.4c4.6,5.5,6.4,12.2,8.2,18.9c0,1.1-0.1,2.2-1.1,2.9c-0.8-0.8-1.5-2.1-3-0.9
		C93.6,245.7,87.4,238,85,229.1z"/>
	<path class="st61" d="M87.2,19.4c0.5-0.4,1.5-0.7,1.5-1.1c-0.3-5.3,3.4-5.9,7.2-6.3c0.1,0.2,0.2,0.3,0.3,0.5c1.1,2.1,2.8,0,4.3,0.6
		c1.6,0.6,3.6,0.7,1.9,3.2c-0.4,0.3-0.7,0.5-1.2,0.7c-3.8,1.6-6.9,4.7-11.1,5.7C88.8,21.9,87.1,21.6,87.2,19.4z"/>
	<path class="st108" d="M181.1,17.1c-1.3,0.1-2.5,0.1-2.2-1.8c-0.6-1-0.8-2.1,0.1-3.1c3.1-1.7-2.4-3.5,0.1-5.3
		c3.8,3.5,9.5,5.3,10.9,11.2C187,18.4,184.1,17.4,181.1,17.1z"/>
	<path class="st134" d="M207.1,35c-0.1-0.6-0.2-1.2-0.3-1.8c0.3,0.1,0.6,0.3,0.9,0.3c6.3-0.4,10.3,3.1,12.5,8.3
		c1.7,4,3.5-2.2,4.7,0.5c-0.5,2.3,2.3,4.5,0,6.8c-0.7,1.5-1.3,0.2-1.9,0l0,0c-1.2-2.4-2.8-4.5-5.1-5.9l0,0
		C214.2,40.7,211.4,36.8,207.1,35L207.1,35z"/>
	<path class="st46" d="M173.1,11.1c-1.5,2-2.9,1.1-4.3,0c-4.1-2.4,0.3,2.8-1.9,2.1c-1.4-0.9-2.4-0.6-3,0.9c-1.1,0-2.3,0.4-2.8-1.1
		c3.1-0.4,3.4-1.9,1.8-4.4c-0.7-1.1-3.5-1.4-1.8-3.7C166.7,4.1,170.5,6.5,173.1,11.1z"/>
	<path class="st137" d="M76.1,29.3c-2.4,1.2-4.8,2.4-7.2,3.6c0-2.9,2.5-4.6,4.3-4.4c5,0.4,6.6-3.2,8.9-6.2c1.5,0.5,3.7-0.6,4.4,1.8
		c-0.3,2.2-2.1,3.4-3.6,4.7C80.6,29.6,78.5,30.6,76.1,29.3z"/>
	<path class="st73" d="M251.2,137.2c0.6-3.3,1.3-6.7,1.9-10c1.6-1.5,3.3-2.2,5.1-0.3c0.5,1.2-0.6,1.7-1,2.5
		C256.9,133.3,253.5,134.9,251.2,137.2z"/>
	<path class="st72" d="M181.1,17.1c3.1-0.4,6.3-2.1,8.9,1c0.3,0.4,0.6,0.7,0.9,1.1c-1.4,0.9-1.2,3.8-3.9,2.9
		C186.6,18.6,182,20.1,181.1,17.1z"/>
	<path class="st106" d="M245.1,138.3c2.1,0.5-1.2,6.3,3.8,3.9c0.2,1.2-0.6,2-1.1,3c-1.3,1-2.7,2-4,3c-0.3,0.8-1,1.4-1.7,1
		c-1.1-0.6-1-1.8-0.9-2.9C242.9,143.7,241.8,139.9,245.1,138.3z"/>
	<path class="st111" d="M257.2,129.4c0.2-0.9,0.4-1.7,0.6-2.6c-0.7-1.6-3.4-2-2.6-4.4c0.9-1.8,1.8-3.6,2.7-5.4
		c0.4,1.1,2.6,1.4,1.5,3.1c-1.2,1.9-2.4,3.1,0.7,4.9C261.5,125.8,260.1,129.1,257.2,129.4z"/>
	<path class="st81" d="M51,171.2c0.7-0.3,1.8-0.3,1.8-1.4c-0.3-3.9,2-3.2,4.3-2.5c1.3,1.6,0.7,3.2-0.1,4.8c-1.1,0.5-2.4,0.8-2.9,2.1
		C53,173.2,52,172.2,51,171.2z"/>
	<path class="st10" d="M103,5.2c0.3,0.7,0.7,1.3,1,2c0.5,4.8-1.8,6.3-8,5.4c-0.1-0.2-0.1-0.4,0-0.6C96.3,7.7,101.7,8.5,103,5.2z"/>
	<path class="st22" d="M62.9,42.1c1.1,0.8,2.1,1.6,3.2,2.4c-1.4,0.9-2.8,1.8-4.2,2.6c-4.3-0.2-3.1,4.2-5.1,6c0-0.2,0.1-0.3,0-0.5
		C55.8,47.4,59.5,44.9,62.9,42.1z"/>
	<path class="st54" d="M35.1,139.2c-0.8,3.2,1.1,6.7-0.9,9.8C30.9,145.5,31.2,142.2,35.1,139.2z"/>
	<path class="st2" d="M86.1,24.3c-0.6-2.1-3.2-0.3-4-2c1.7-0.9,3.4-1.9,5.2-2.8c0.9,0.9,1.7,1.8,2.6,2.7c-0.2,1.5-1.4,1.9-2.6,2.5
		C86.8,24.6,86.4,24.5,86.1,24.3z"/>
	<path class="st124" d="M225,49.1c0.9-2.3-2.1-4.5,0-6.8c0.9,2.6,4.7,4.4,2.3,8C227,48.9,226.4,48.2,225,49.1z"/>
	<path class="st2" d="M179,12.2c0,1,0,2.1-0.1,3.1c-1.6-1.1-3.1-2.2-4.7-3.3C175.9,9.2,177.5,10,179,12.2z"/>
	<path class="st76" d="M37.7,152.4c0.4,0,0.8-0.1,1.2-0.1c0.1,0.3,0.2,0.6,0.3,0.8c0.8,1.3,2.1,2.4,1.7,4.2
		C37.5,157.2,38,154.5,37.7,152.4z"/>
	<path class="st15" d="M204,235.2c2.5-2,8.7-0.2,7.1-6.6c4.3,0.7,3.3-3.7,5-5.4c3.4-3.3,4.9-7.6,6.9-11.7c0.4-0.9,0.7-2.1,1.9-1.8
		c1.3,0.3,0.9,1.6,0.7,2.5c-0.9,4.3-1.8,8.5-2.7,12.8c-0.4,1.7-0.7,3.3-1.1,5c-0.4,3.4-2.2,6.2-3.8,9.1c-0.1,0.3-0.1,0.6-0.1,0.9
		c-1.4,6.2-5,11.5-5.9,18.2c-0.6,4.3-3.4,9.7-7.2,13.4c-3.1,0.1-5.3,1.5-6.2,4.6c-0.3,0.6-0.8,1.1-1.3,1.6c-2.3,1.6-5.7,1.5-6.7,4.9
		c-0.6,0.8-1.5,1.1-2.5,1.2c-4.1,0.9-8.3,1-12.3-0.7c-0.2-1,0.4-1.5,1.2-1.9c10.2-5.5,17.3-15.1,27.2-21c1.6-1,1.5-2.9,1.6-4.5
		c0.2-3.2,2.2-6,1.9-9.7c-3.7,0.6-6.4,3-9.2,4.8c-6.7,4.3-14.6,6.1-21.4,10.3c-0.8,0.5-1.9,0.6-2.7,1.2c-8.7,6.6-18.9,5.4-28.8,5.6
		c-3.4,0.1-6.9,0.4-10.7-0.5c0.1,3.4,1.7,5.5,3.3,7.6c1.1,1.4,2.7,2.6,2,4.8c-0.9,1.1-2.2,1-3.2,0.5c-4.8-2.4-10.5-3.5-13-9.2
		c-0.9-1.9-2-1.5-3.5-0.5c-2.8,2-5.3,0.8-5.3-2.2c-0.1-4.9-3.3-5-6.5-5.6c-4.7-1.9-8.3-4.8-9.1-10.1c-0.2-1.1-0.8-2.2-0.8-3.4
		c-0.1-2.3,1-3,3.1-2.3c1.3,0.4,2.5,1.1,3.3,2.1c4.9,5.7,12,8.6,17.3,13.9c2.2,2.3,4.9,3.6,6-1.2c0.3-1.4,1.5-1.6,2.8-1.4
		c1.5,0.3,2.9,0.9,4.4,0.3c1.5-0.4,2.8-0.3,4,0.9c3.1,3.5,7.3,1.1,11,1.9c4.1-0.6,8.3-1.1,12.4-1.5c3.2,0.2,6.3-0.2,8.1-3.4
		c0.6-1,1.4-1.8,2.1-2.6c0.5-0.5,1-0.9,1.6-1.3c1.5-1,3.9-1.1,4-3.7c-0.2-3.7,3-4.6,5.2-6.2c0-0.4,0.1-0.9,0.1-1.3
		c0.5-1.3-0.5-3.7,1.4-3.7c3,0,1.3,3.2,2.4,4.5c0,0.8,0.8-0.4,0.1-0.1c-0.2,0.1-0.2-0.1-0.2-0.4c-0.5-2.7,0.8-2.6,2.3-1.4
		c1.9,1.5,3.9,1,6.1,0.9c4.1-0.1,6-2.1,6.6-5.9C203,236.8,203.2,235.9,204,235.2z"/>
	<path class="st120" d="M204.3,271.3c1.3-0.7,1.6-1.9,2-3.3c0.7-3.1,1.4-6.2,4.2-8.3c1-0.8,1-1.7,0.9-3c-0.5-6.5,3.5-11.4,6.6-16.6
		c0.6,4.6-2.1,8.4-2.9,12.5c-1.1,6.6-4.5,12.1-6.3,18.4c-0.9,3-4.5,4.7-4.7,8.3c-1,0.3-2.1,0.6-3.1,0.9c-2.2-1.9-1.1-3.7,0.3-5.4
		C202.4,273.7,202.8,272,204.3,271.3z"/>
	<path class="st120" d="M218.1,239.2c0.2-3.5,2.3-6.2,3.8-9.1C222.4,233.8,221.3,237,218.1,239.2z"/>
	<path class="st135" d="M134.1,293.1c-0.4,0-0.9,0-1.3,0c-2.6,0-4.5-1.5-6.4-2.9c-1.6-1.1-3.4-1.9-5.4-1.1l0,0
		c-2.8-1.9-3.3-5.3-5.1-7.9c-2.9-0.5-3.3-3.5-5.1-5c-0.4-0.7-0.5-1.3,0.1-2c5,3.1,9.9,6.1,15,9.2c-0.3,1.7-3-0.3-3,1.9
		C126.7,287.6,132.8,287,134.1,293.1z"/>
	<path class="st26" d="M110.9,274.2c0,0.7,0,1.3-0.1,2c-3.4,0.6-4.7-1.1-5.4-4.3c-1.2-5.2-5.8-8.8-7.3-13.9c0.6-0.5,1.2-0.6,2-0.5
		c3.5,2.6,5.9,5.9,8.1,9.6c0.9,1.5,0.5,2.8,0.6,4.2C108.9,272.7,110,273.4,110.9,274.2z"/>
	<path class="st51" d="M100.1,258.1c-0.6,0-1.3-0.1-1.9-0.1c-0.4-0.6-0.8-1.2-1.3-1.8c0.1-1,0.1-2.1,0.2-3.1
		c0.7-0.6,1.5-0.6,2.3-0.2C100.6,254.5,101.2,256.2,100.1,258.1z"/>
	<path class="st34" d="M109,262.2c4,0.3,8.5,0,7.1,6.3c-0.2,1,0.5,1.9,1.5,2.3c1.2,0.5,2.6,0.2,2.8-1.1c0.4-2.2,1.8-1.6,3-1.3
		c1.2,0.4,2.8,0.9,2.4,2.6c-0.3,1.5-0.2,3.2,1.2,3.3c5,0.6,7.8,6,13.1,5.8c3-1.3,6-1.4,8.9,0.5c0.9,0.6,1.8,1,2.7,0.3
		c1-0.7,0.5-1.7,0.3-2.7c-0.6-3.8,1.4-6.9,4.4-6.7c3.7,0.3,4.3,2.7,4.1,6c-0.4,7.6,2.1,9.5,9.5,7.8c1.6-0.4,3.2-1,4.9-0.4
		c0.3,0.3,0.4,0.5,0.3,0.8c-0.1,0.3-0.1,0.4-0.2,0.4c-5.1,4.6-11.5,5.9-18,6.9c-1.3-2.7-4,2.2-5.7-1.1c-0.4-0.8-4.9,0.9-2.5-3.2
		c0.2-0.3-2.3-1.4-3.7-1.5c-5.4-0.4-10.7-0.4-14.2-6.1c-1.3-2-4.6-3.6-7.6-3.7c-3.7,0-6.2-1.8-8.4-4.3c-1.8-1-4-2.7-3.8-4.2
		C111.4,266.2,106.5,265.3,109,262.2z"/>
	<path class="st138" d="M109,262.2c1,4.2,4.1,7.3,6,11c-2.4,0.5-4.2-1-6.2-1.9c-1.4-1.1-0.8-3.7-3.1-4c0.9-4.7-4.1-5.8-5.6-9.1
		c0.1-1.7-0.2-3.4-1.2-4.8c0.4-1,1-1.6,2.2-1.1C100.8,257.8,105.1,259.8,109,262.2z"/>
	<path class="st56" d="M175,286.2c0-0.4,0-0.7,0-1.1c-0.6-1.2-0.7-2,1-2c3.3-0.9,7.1,3,10.1-1.2c0,0,1.3,0.8,2,1.2
		c1.9,2.9,1.2,4.8-2.1,5.9c-2,1.6-4-0.4-6,0c0.6-1.3,1.7-2.7,0.3-3.9C178.4,283.7,176.9,286.5,175,286.2z"/>
	<path class="st115" d="M186,289.2c2.2-1.4,2.1-3.7,2.1-5.9c0.8,0,1.5-0.2,2-1c3.9,0.5,6-1.6,7-5.1c0.3-0.3,0.6-0.7,0.9-1
		c1.2-1.1,2.3-2.3,4-1c-1.5,1.4-1.6,3.1-1.1,5c-1,3-3.8,4.2-6,6C191.7,286.4,189.7,290.3,186,289.2z"/>
	<path class="st119" d="M89.1,43.3c0.9-0.7,1.9-1.5,2.8-2.2c7.9-3.1,16-5.4,24.1-7.7c11.2-3,22.5,0.4,33.7-0.6
		c7.5-0.7,14.6,0.4,21.4,3.1c6.5,2.6,13.1,5.5,16.7,12.4c1.7,3.2,5,5.3,7.5,8c5.3,8.1,10.4,16.3,14.5,25.1
		c0.3,6.8,3.9,12.7,5.4,19.2c0.3,0.9,0.1,1.9,0.8,2.7c0,0.6,0,1.3,0,1.9c3,10.1,3.3,20.6,5.7,30.8c0.2,0.8,0.2,1.7-0.1,2.5
		c-1.7,2.3-2.9,0.4-3.9-0.7c-1.9-2.2-2.4-4.9-3.1-7.7c-2.3-9.7-3.5-19.6-6.6-29.1c-1.2-3.6-2.7-5.8-7.2-4.3
		c-3.4,1.2-5.1-1.8-6.1-4.5c-0.7-2,0.7-2.8,2.5-2.2c2.8,1,5.5,0.7,8.3-0.5c-4.8-10-7.7-20.6-14.7-29.3c-4.3-4.4-7.8-9.5-11.9-14
		c-1.3-1.5-2.7-2.4-4.7-2.1c-0.7-0.1,0.1,0.3-0.5-0.1c-13.9-7.7-29.4-5.9-44.3-7.1c-7.2-0.5-15,1.1-21.8,4.7
		c-4.4,2-9.3,1.6-13.9,3.4c-2.4,0.9-4.5,3-7.3,2.5C85,44.7,87.9,44.5,89.1,43.3z"/>
	<path class="st58" d="M228.8,174.4c0.6,4.2,0.3,8.4,2,12.5c0.9,2.1-1.8,3.3-1.9,5.3c-1,0.4-2,3.8-2.9-0.1c-2.5-2.3-3.3-5.2-3.3-8.4
		c-0.9-9.8-0.5-19.6,0.4-29.4c-0.1-3.9,0.8-7.7-0.4-11.6c-0.3-6.9-2-13.6-2.6-20.5c-0.2-2.1-0.8-4.3,0.9-6.1
		c2.3,5.8,4,11.7,4.1,17.9c0.1,7.9,2.1,9.9,9.9,10c0.8,2.3-0.9,3.5-2.4,4.2c-3.5,1.7-3.8,4.5-3.3,7.7
		C228.9,162.2,228,168.3,228.8,174.4z"/>
	<path class="st27" d="M220.9,116.2c0.9,7.2,1.8,14.4,2.7,21.6c0.2,1.8,0.3,3.6,0.4,5.4c-0.4,0.4-0.9,0.5-1.5,0.5
		c-2.1-0.9-3-2.3-1.6-4.5c-2.3-11.2-4.6-22.5-5-34C217.7,108.8,219.3,112.5,220.9,116.2z"/>
	<path class="st112" d="M175.1,35.1c3.3-0.6,5.7,2.3,8.8,2.1c4.8,5.2,9.8,10.3,14.3,15.8c4.1,5,8,10.3,8.8,17.1
		c0.5,0.6,0.6,1.3,0.2,2c-1.2,0.6-2.1-0.2-2.3-1.1c-1.7-6.1-6.5-10.1-9.9-15c-0.3-0.3-0.6-0.7-0.8-1.1c-2.1-5.9-6.9-9.4-11.5-13.2
		c-2.3-2.3-5.4-3.3-7.9-5.4C174.7,35.9,174.8,35.5,175.1,35.1z"/>
	<path class="st74" d="M206.9,72.3c0-0.7,0.1-1.4,0.1-2.1c1.5,0.9,3.8,1.3,3.9,3.4c0.3,5.1,4.6,8.9,4.3,14.3c-0.1,2.2,0.8,4.7,2,6.5
		c1.7,2.5,2.1,4.2-0.6,6.1c-0.6,0.4-0.4,1.8-0.6,2.8c-0.3-0.7-0.6-1.4-0.9-2.1c-2.3-6.9-3.1-14.2-6.2-20.8
		C207.9,77.7,205.1,75.5,206.9,72.3z"/>
	<path class="st19" d="M228,155.2c-1.1-3.6-0.5-6.2,3.6-7.5c1.5-0.5,2.6-1.9,3.2-3.5c1-1,2.1-2,3.1-3c0.3,0,0.7,0,1,0
		c1.6,4.3-0.8,7.5-3.6,9.7C233.3,152.5,230.7,154.2,228,155.2z"/>
	<path class="st96" d="M186.9,22.3c1.4,1.4,2.9,0.8,4.5,0.3c2.5-0.8,2.6,0.9,2.6,2.7c-1.2,0.1-2.6-0.4-3.7,0.9
		c-2.3,2.8-4.4,2.5-6.4-0.8C185.3,24.7,184.7,22,186.9,22.3z"/>
	<path class="st140" d="M207.1,35c5.4,0.3,8.1,4.3,10.9,8.1C211.8,43.9,209.9,38.8,207.1,35z"/>
	<path class="st51" d="M244.9,99.1c-0.2,3.6,4.2,3.4,5,6.2c-2.8-0.2-1.4,4-4.6,3.9C245.3,105.9,241.9,102.8,244.9,99.1z"/>
	<path class="st24" d="M255.2,122.4c0.7,1.6,3,2.2,2.6,4.4c-1.7-0.7-3.1,0.5-4.7,0.4c0-1,0-2-0.1-3.1
		C253.6,123.4,254,122.4,255.2,122.4z"/>
	<path class="st140" d="M218,43.2c3,0.9,5.7,1.9,5.1,5.9C220.9,47.6,219.1,45.7,218,43.2z"/>
	<path class="st91" d="M86,47.2c6.5-3.6,13.5-5.5,21-6c0.6-0.4,1.3-0.7,2-0.9c5.4-1.1,10.9-0.4,16.3-0.9c3.1-0.3,5,1.6,4.7,4.5
		c-0.6,4.6,0.9,9.3-1.8,14.1c-1.8,3.1,0.5,7.7-1.1,11.5c-0.4,0.8,1.6,1.4,2.5,2.1c2.8,2.2,3.4,4.8,0.4,7c-3,2.3-2.7,4.5-1.2,7.3
		c1.3,2.4,0.9,4.7-1.3,6.1c-2.7,1.7-3.7-0.9-5-2.5c-0.6-0.8-1-1.8-1.8-2.4c-1.5-1.2-3.3-1.3-4.6-0.1c-1.8,1.6,0.3,2.5,1.2,3.5
		c2.1,2.3,4.7,3.7,7.9,3.8c2,0.1,4,0.2,5.7,1.4c0.4,0.3,1.1,0.7,1.4,0.5c3.6-3.3,9.7-1.1,12.5-5.9c1.7-2.9,4-3.3,6.6-1.1
		c0.3,0.2,0.6,0.3,0.9,0.5c1.5,1.1,4.1,0,4.8,2.1c0.7,2.1-0.5,4.2-1.3,6.2c-1.7,4.2-4.9,5.8-9.2,5.4c-4.1,3.7-9.2,2.1-13.8,2.2
		c-5.8,0.1-11.1,2.3-16.7,3.5c-0.5,0.2-1,0.2-1.6,0.3c-3.4,0-7,0.8-10.1-1.4c-1.3-2.6,0.8-2.6,2.3-2.9c2.1-0.5,4.2-0.8,6.1-2.9
		c-3.4-1.1-6-2.4-5.5-6.5c0.2-1.5-2.2-1.6-3.7-1.6s-2.8,1.1-4.4,0.9c-2.2-0.2-4.5-0.5-5.1-3.1c-0.5-2.7,1-4.4,3.5-5.2
		c0.9-0.3,2-0.1,2.9-1.4c-3.9-1-6.3,1.1-8,3.5c-1.5,2-5.5,4.1-0.8,7.2c1.2,0.8,0.1,2.4-0.5,3.6c-2.9,5.4-2.8,5.4,2.6,7.3
		c0.8,1,0.2,1.8-0.5,2.6c-0.4,0.3-0.8,0.6-1.2,0.8c-2.3,1-4.9,0.8-7.3,1.4c-2.9,0.8-6.6,1.1-6,5.7c0.4,2.8-2.5,5.2-1.1,8.2
		c0.2,1.3,0.2,2.6-0.4,3.8c-0.4,0.7-1.1,1.2-1.9,1.5c-2.9,0.6-3.9-1.5-4.5-3.6c-2.4-8.1-4.7-16.3-5.3-24.6
		c-0.9-13.5,1.8-26.7,7-39.2c0.2-1.7,1.3-2.9,2.1-4.2c0.4-0.6,0.7-1.3,1.1-1.9C79,53.6,80.9,48.7,86,47.2z"/>
	<path class="st70" d="M101,16.2c0.3,0,0.6-0.1,1-0.1c0.3-0.2,0.7-0.3,0.8-0.6c1.6-6.1,6-6.9,11.3-6.2c4.8-1.7,10-1.1,14.9-2.3
		c1.7,0.1,2.2-2.3,4-2c5.4-0.4,10.6,1.5,16,1c1.7,0.7,3.3,1.4,5,2c1.8,1.4,3.9,2,6.1,1.9c0.1,0.6,0.2,1.2,0.3,1.8
		c-0.9,0.4-2.1,0.5-2.7,1.1c-4.1,4.1-8,3.9-13.2,1.1c-5.6-3.1-12.3-3.3-18.5-0.6c-2.5,1.1-4.5-0.1-6.8-0.2
		c-6.3-0.5-11.3,1.9-15.2,6.7c-0.6,0.7-1.2,1.1-2.1,1.2C101.1,19.6,99.2,18.3,101,16.2z"/>
	<path class="st101" d="M69.8,164.2c-1.8-1.6,0.3-4.5-1.8-6c-1.2-7.5-2.6-14.9-3.6-22.4c-1-7.2-3.5-13.5-7.9-19.2
		c-0.7-0.9-3.2-4.1,1.4-4.2c1.2,0,1.5-2,1.1-3c-3.7-8.9,1.4-16.6,3.1-24.7c1-4.7,1.2-9.8,5-13.5c1.6,2.1,0.4,4.1-0.2,6.2
		c-2,7.5-4.9,14.9-4.4,22.9c0.4,7.5,1.4,14.9,4.9,21.7c1.7,3.2,2.5,6.7,1.8,10.1c-1.7,8.6,0.5,16.8,1.7,25.1
		C71.2,159.6,72,162.1,69.8,164.2z"/>
	<path class="st24" d="M69.8,164.2c0.3-5-1.2-9.8-1.6-14.8c-0.4-5.5-2.1-11-0.5-16.7c1-3.6-0.2-7.3-1.9-11
		c-5.7-12.3-6.3-25.1-2.1-38.1c1.3-4.1,2.2-8.3,3.3-12.4c2.2-4.3,3.9-8.9,7.9-12.1c-0.4,1.3-0.7,2.6-1.1,3.8
		c-5.4,8.7-6.8,18.5-8.3,28.3c-0.8,5.2-0.9,10.8,0.4,15.8c1.6,5.9,2.3,12,4,17.9c1.5,5.2,0.4,10.6,0.9,15.9
		c0.6,6.3,1.3,12.5,1.4,18.9c0,1.9,0.4,4.1-1.5,5.5c-0.3,0-0.6-0.1-0.8-0.2C70.1,164.8,70,164.5,69.8,164.2z"/>
	<path class="st85" d="M175.1,35.1c0,0.3,0,0.6,0.1,0.9c-5.7,0.3-10.7-2.7-16.3-3.3c-1.1-0.1-2.3-0.9-3.4-0.5
		c-8.7,2.8-17.3-0.1-26,0c-4.7,0.1-9,1.5-13.5,1.9c-8.2,1.8-15.6,6.1-24.1,6.8c6.2-4.8,14-5.6,21.1-7.9c10.8-3.3,21.8-5,33.2-3.1
		c3,0.5,6.2,0.3,9.4-0.6c4.4-1.3,8.5,0.6,12.4,2.2C170.4,32.7,172.7,34,175.1,35.1z"/>
	<path class="st103" d="M101,16.2c0.3,1.6,0.6,3.3,1,4.9c-4.6-1.5-9.9,0.8-12.5,6.1c-0.7,1.5-1.3,2.4-2.8,2.9
		c-3,1.1-4.7,3.1-5.4,6.5c-0.9,4.4-4.9,5.5-8.4,2.6c0.2-2.6,1.7-3.4,4-3c2.4-0.6,3.8-1.5,1.3-3.9c-0.9-0.9-1.5-2-2.3-3.1
		c2.2-0.4,4.4-0.9,6.7-1.3c2-0.6,4-1.3,4.2-3.9c1-0.7,1.9-1.4,2.9-2c3.4-1.6,6.4-3.7,9.4-6C99.6,15.8,100.4,16.2,101,16.2z"/>
	<path class="st21" d="M86,47.2c-3.3,3.4-6.7,6.7-10,10.1c2.6-6.3,7-10.9,13.1-14C88.1,44.6,87,45.9,86,47.2z"/>
	<path class="st13" d="M77.1,36.2c-1.5,0.8-3,1.6-4,3c-0.8,0.2-1.7,0-2.2,0.9c-0.4-0.2-1.3-0.4-1.3-0.5c0.1-2.7,5.3-6.2,7.5-5.1
		C77.4,34.6,77.1,35.6,77.1,36.2z"/>
	<path class="st8" d="M212.9,198.1c-1,2.3-2,4.7-3,7c-1.4,3.1-2.6,6.3-4.5,9.1c-0.9,1.4-1.1,3.7-3.8,2.6c-0.6-0.2-0.7,0.1,0.6,2.4
		c0.1,0.5,0.1,0.9-0.2,1.3c-3.7,2.9-4.4-1.2-6.2-2.6c-3.6,0.1-7.2,3.3-10.9,0.4c-0.3-0.4-0.4-0.8-0.5-1.3c1-4.2,1.5-8.6,7.4-9
		c2-0.1,2.4-1.7,0.8-3.1c-1.9-1.7-3.1-3.9-4.8-5.7c1.5-4.1,6-6.4,8.6-3.8c2.5,2.4,4.5,1,6.7,1c0.5,0.1,0.9,0.3,1.3,0.7
		c0.4,0.6,0.6,1.3,0.6,2.1c-0.1,2-0.8,3.9-0.7,5.9c0,0.5-0.1,1,0.5,1.7c2-4.1,2-8.8,4.3-12.6c0.4-1.1,0.8-2.2,1.4-3.3
		c2-1.2,1.5-4.8,4.7-4.8C217.4,190.7,215.5,194.5,212.9,198.1z"/>
	<path class="st121" d="M185,218.2c3.4,0.3,6.8,0.9,9.7-2.1c0.9-1,1.2,0.3,1.3,1.1c1.3,3,2,6-0.1,9c-0.8,1.1-0.9,2.2,0.7,2.8
		c1.7,0.6,1.9-0.8,2.3-1.9c0.7-2.4,1.9-4.6,3-6.9l0.2-0.1c3.9,0.6,4.5,3,3.1,6.1c-0.9,2-1.6,3.9-2.1,6c0,0.6-0.1,1.2-0.1,1.8
		c-0.6,0.9,0.2,1.9-0.1,2.9c-0.5,2.3-1.9,4.3-4.1,4.5c-2.4,0.2-5-1.1-6.6-2.7c-1.5-1.5-3.1-3.4-3.9-5.7c-0.4-1.9-1.1-3.5-3.1-4.1
		c-0.4-0.2-0.8-0.4-1.2-0.7c-0.5-0.4-1.3-0.5-1.7-0.9c-4-4.7-9-4-14.2-3.1c-2.4,0.4-4.6-0.2-3.6-3.6c3.7-0.7,7.2-2.3,11-2.7
		c0.7,0,1.5,0,2.2,0c1.5,0.1,2.9,0.4,4.1,1.4C183.5,220.9,184.1,219.2,185,218.2z"/>
	<path class="st20" d="M212.9,198.1c0.5-4,2.8-7.7,2.2-11.9c-0.7-3.2-1-6.5-0.4-9.8c0.4-2.1,1.5-3.6,3.4-0.9c4,1.5,4.1,5.6,5.8,8.6
		c-0.9,3,2.4,5,2,8c-1,2.2-2.3,4.4-2.8,6.7c-0.9,3.6-3.1,5.2-7.2,5.8c2.2-3.8,3.9-7.1,4.4-11.1C218.9,197,215.7,197.2,212.9,198.1z"
		/>
	<path class="st110" d="M189,232.2c0.8,2.8,4.6,3.7,4.2,7.1c1.4,0,0.4-2.7,1.8-1.7c4.8,3.7,5.6,3.5,7.4-2.8c0.1-0.3,0.4-0.5,0.6-0.8
		c0.4,0.4,0.7,0.7,1.1,1.1c0.5,3.9-0.4,8.4-3.9,9c-3.3,0.6-8.2,4.5-11.3-1.8c-1,1.8,1.2,3.4-0.3,4.8c-1.9-1.7-0.9-4.6-2.7-6.4
		c-1.2,1,1,2.7-0.7,3.5c-4.4-4.7-4.5-13.4-0.1-16.1l0,0C186.1,229.7,187.2,231.3,189,232.2z"/>
	<path class="st75" d="M203.1,232.2c-0.1-1.7,0-3.3,0.8-4.9c1.6-2.9,0.9-5.3-1.8-7.2c-0.8-0.7-1.9-1.4-2.5-2.3
		c-1-1.5-0.4-3.1,1.1-3.7c2.3-1,0.7,2,2,2.2c2.4-3.8,4.8-7.5,7.2-11.3c0.5,1.8-0.5,3.2-1.2,4.7c-2.2,4.7-4.6,9.4-1.5,14.7
		c1.1,1.9,1.1,3.1-1.7,3.7C204.4,228.4,203.8,230.8,203.1,232.2z"/>
	<path class="st108" d="M75.1,181.1c-0.6-2.3-1.2-4.7-1.8-7c-1.1-9.2-2.4-18.4-1.6-27.7c0.3-3.1,1.1-5.9,3.3-8.1c2.1-2,3.8-1.8,5,1
		c0.4,0.9,0.5,1.9,0.7,2.9c1.1,4.9,5.4,6.4,9.1,2.9c3.3-3.1,7.1-2.3,10.8-1.7c1.7,0.3,2,1.6,1.4,3.1c-0.7,1.7-2,2.6-3.5,3.3
		c-2.8,0.6-6,0-7.9,2.1c3.5-1.7,7.5-3.1,11.7-0.5c-0.2,1.6-1.5,1.7-2.7,2c-3.1-0.2-3.7,0.6-2.8,3.9c1,3.5,1.7,6.6,5.1,8.6
		c2.6,1.5,1.9,3.7,0.1,5.4s-2.9,3.4-3.1,6c-0.2,3.1-2.9,4.8-5.4,5.2c-3.4,0.5-7.3,1.6-10.6-0.8c-1.3-1-3.1-0.5-4.3-1.7
		c-1.1-2.1,0.1-4.1-0.1-7.4c-0.8,3.3,0,5.9-1.6,7.9C76.4,181,75.9,181.4,75.1,181.1z"/>
	<path class="st57" d="M98,149.1c1.2-1.3,3.3-1.8,3.2-4.5c-4.3-0.3-8.8-2.1-11.8,3.1c-0.8,1.3-1.4,2.3-3.2,0.2
		c-1.5-1.8-4,1.4-6.7,0.8c1.1-3-0.2-6-0.5-9c-0.3-2.2-1.6-2.5-2.9-0.8c-1.2,1.6-2.8,3-2.9,5.1c-0.1,7.8-2.4,15.7,0.4,23.5
		c0.8,2.1,1.1,4.5-0.3,6.7c-0.8-3-1.6-5.9-2.4-8.9c0.9-7.6-1-15.2-1.1-22.8c-0.1-8.9-0.4-17.9-3-26.4c-2-6.7-3.3-13.4-2.7-20.3
		c1-11.6,1.9-23.3,9.8-32.8c0.8,2.6-1.6,4.2-2,6.5C70.8,75.4,69,81,68.3,87.1c-0.7,5.6-1,11.1-1.3,16.7c-0.4,5.1,4.1,9.2,3.4,14.3
		c-0.5,3.7,1.3,6.6,2.3,9.8c0.6,1.8,1.4,2.5,3.2,2.3c1.5,3.7,2.3,1.1,3.3-0.3c0.5-0.8,1.1-1.5,1.8-2.1c0.4-0.3,0.9-0.7,1.3-0.7
		c6.3,0,12.2-1.7,18.3-2.6c1.7-0.3,3.7,0.2,4.4,2.4c-0.8,1.7-2.4,2.2-3.9,3c-4.3,0.9-8.2,2.5-11.4,5.7c-0.6,0.6-1.3,1.1-1.9,1.8
		c-0.9,1.6-1.1,3.2-0.1,4.8c1.1,0.3,2.1,0,3.1-0.1c1.5-0.1,3-0.1,4.5-0.1c5.4,0.1,10.9-0.5,16.2,1.4c0.9,0.3,2.1,0.3,2.2,1.5
		c0.1,1.1-0.6,1.9-1.5,2.4C107.9,149.6,103.2,151.5,98,149.1z"/>
	<path class="st38" d="M79,180.2c1.3-0.9,2.6-1,4,0c0,2.7,1.9,4.4,3.8,6.8c1.8-2.4,3.8-4.1,7.2-4.2c2.6,0,4.4-2.6,6.2-4.6
		c1.9-2.2,3.3-5.2,7-5c0.7,0.1,1.4,0.3,1.9,0.8c0.6,1.6-0.5,2.5-1.5,3.3c-3.9,3-6.8,7.2-10.9,9.9c-1.7,1.1-0.9,3.1-1.7,4.4
		c-2.6,4.5-1.1,8.4,1.7,12.1c1.3,3,1.5,6.3,4.3,9c2.6,2.5,0.7,5.2-4,6.3c-0.5-0.1-0.9-0.2-1.4-0.5c-1.9-1.5-3.8-3-5.5-4.6
		c-2.4-2.6-2.4-5.9-2.5-9.1c-2.2-3.7-1.9-8.4-4.2-12c-1.1-0.3-1.9,0.6-2.9,0.6c-1.9-0.9-2.3-2.5-2.4-4.3c0-1.7-0.4-3.1-2.1-3.9
		c-0.7-1.3-1.2-2.6-0.9-4.1c0.3-0.3,0.6-0.7,0.9-1C77,179.5,78,179.3,79,180.2z"/>
	<path class="st34" d="M101,252.2c-0.7,0.4-1.4,0.7-2.2,1.1c-0.6-0.1-1.2-0.1-1.8-0.2c-2.4-6.2-4.9-12.4-7.3-18.6
		c1.3-2.9,2.5-1.6,3.9,0c1.9,2.3,4.3,3.6,7.3,3.7c3.3-1.1,4.7,0.2,4.6,3.5c-0.2,5.1,1.9,8.5,6.9,10.1c2,0.6,3.6,2.5,5.8,2.8
		c4.2-2.9,7.4-1.7,10,2.4c2.3,1.3,5.4,0.3,7.4,2.6c0.5,0.8,0.8,1.7,0.4,2.6c-0.9,0.3-1.7,1.1-2.8,0.6c-1.9-0.8-3.9-3.1-3.8,1.8
		c0,2.9-3.5,3.1-5.9,1.3c-2.9-2.2-5.3-5.2-8.4-6.9c-5.6-3-9.3-8.4-14.8-11.5C98.7,249.6,100.8,250.7,101,252.2z"/>
	<path class="st98" d="M106,234.1c-2.9,1.1-2.1-4.1-5-3c-0.6-0.5-0.6-1.2-0.4-1.9c1.1-3.2,3.9-5.6,4.1-9.1c0.3-4.2,3.8-7.2,4.3-11.3
		c3.4-4.8,8.1-1.6,12.4-2.2c-3.1-1.2-1.2-3.2-0.7-5c1.5-1.4,1.9-4.3,5.2-2.7c3.5,1.8,3.1,4.3,1.9,7.2c0.1,0.9,0.4,1.7,0.6,2.5
		c1,1.9,0.9,3-1.6,3.4c-2.6,0.4-5.2,0.7-7.8,0.2c-1.6-0.1-2.9-1.1-4.3-1.7c-3,2.1-3.6,4.5-1.6,7.7c1.5,2.4,2.7,5,1.1,7.9
		c-0.7,0.5-1.7-0.6-2.3,0.8c-0.4,0.8-0.4,1.9-1.2,2.5c-1.3,0.9-2.8,1.7-4.1,0C106.8,231.1,108.4,232.8,106,234.1z"/>
	<path class="st48" d="M106,234.1c0.1-0.8,0.3-1.6,0.3-2.3c0-1.5-1.7-4,2.2-2.5c2.2,0.8,2.4-2.4,3.2-3.5c1.7-2.3,1.6,0.8,2.3,0.3
		c1.6,1.7,4.1,0.7,5.7,1.6c2.4,1.4,1.9,7.7-0.5,9.9c-1.3,0.6-4.3-0.5-2.9,2.8c0.3,1.1,0.1,2.1-0.5,3.1c-0.2,0.4-0.6,0.6-1,0.8
		C112.3,240.6,107.2,239,106,234.1z"/>
	<path class="st59" d="M101,229.2c0,0.7,0,1.3,0,2c-6.1,2.7-8.6-1.6-11.1-5.9c0.1-0.2,0.1-0.4,0.2-0.7c1.4-4-1.4-6-3.8-8.1
		c0,0-0.3,0.2-0.3,0.3c0.1,0.3,0.2,0.6,0.2,1c-0.1,0.2-0.2,0.4-0.3,0.5c-3.1,0.4-2.9-2.4-4-4c0.5-2.4,3.7-4.3,0.9-7.4
		c-1.2-1.3,0.7-2.7,2.3-2.8c1.9-0.2,3.4,0.6,3.3,2.7c-0.1,3.1,0.2,5.9,2.7,8.1c1.4,1.4,2.6,3.2,4.9,3.2v0.1c1.6,1.8,4,2.9,4.6,5.6
		c0.3,1.7-1.8,3.4-0.1,5.2C100.7,228.9,100.9,229,101,229.2z"/>
	<path class="st94" d="M118.1,256.1c-5.3-3-12-4.2-14-11.3c-0.2-0.7-1.2-1.4-0.5-2.2c3.3-3.9-0.6-3.6-2.6-4.5
		c-1.2-1.2-2.4-2.3-2.2-4.9c3.7,3,9.3,3,8.8,10c-0.1,1.7,4.7,1.7,7.3,1.9c1.5,1.3,1.1,3.7,3.7,4.8
		C121.6,251.3,120.2,254.2,118.1,256.1z"/>
	<path class="st48" d="M118.1,256.1c0-2.3,4-6.1-2.5-5.9c-1.2,0-0.1-3.3-0.6-5c0-0.3,0-0.6-0.1-0.9l0.3-0.3c0.6-0.5,1.3-0.5,2-0.3
		c2.9,2.5,4.2,1.2,4.9-1.9c1-4.5,1.1-4.5,5.5-2.1c0.1,0.4,0.2,0.9,0.2,1.3c-0.6,4.1,0,7.9,2.9,11.1c0.2,0.7,0.1,1.3-0.2,2
		c0,1-4.2-1.5-1.5,1.8c0.4,0.6-0.1,1.6-0.8,2.1c-2.7-0.6-3.2-3-4.4-5.1C122.4,255.2,120.3,255.8,118.1,256.1z"/>
	<path class="st27" d="M56.9,172.1c0-1.6,0.1-3.2,0.1-4.8l0,0c1.9-1.6,3-0.5,3.9,1.1c1.1,2.1,3,2.9,5,3.9c1,0.7,2,1.3,3,2
		c2.7,3.5-3.7,3.2-2.6,6.1c1.8,1.1,2.4-3.1,4.4-1.1c1.5,2.2,0.8,4.7,1.1,7c-9.2-1.4-10.2-2.4-12.1-11.3
		C59.7,174,60.8,170,56.9,172.1z"/>
	<path class="st131" d="M91,215.2c-2.9-1.4-3.2-4-3-6.8c0.2-2.1-0.4-3.7-2.8-3.6c-1,0.1-2.9,1.1-1.4,2.2c5.4,4-0.3,5-1.7,7.2
		c-0.1-0.1-0.4-0.3-0.3-0.3c2-4.6-2.7-7.6-2.7-11.7c2.1-0.6,2.9-1.7,2.4-4c-0.4-1.7-1.3-3.4-0.4-5.3c0.1-1.3,0.8-1.9,2.1-1.7
		c2.1,1.5,2.1,3.9,2.6,6.1c0.6,2.5,0.8,5.3,3.5,6.8c-0.3,3.5,0.4,6.9,2,10c0.3,0.2,0.3,0.5,0.2,0.7C91.1,215.1,91.1,215.2,91,215.2z
		"/>
	<path class="st49" d="M80.9,193c0.7,2.3,1.5,4.6,2,6.9c0.3,1.3-0.3,2.7-1.3,3.5c-1.4,1.1-1.7-1.1-2.7-1.2h-0.1
		c-0.2-3.1,0.5-6.4-1.9-9c-0.3-2.7-0.1-5.4-1.1-7.9c2.2-1.1,3-0.1,3,2C78.9,189.4,79.1,191.4,80.9,193z"/>
	<path class="st105" d="M70.9,179.2c-0.9,0.1-1.6,0.3-1.8,1.3c-0.3,1.4-1,2.6-2.6,2.5c-1.9-0.1-1.3-1.9-1.7-3
		c-0.7-1.8,0.4-3.3,1.8-3.3c1.9-0.1,2.7-0.5,2.4-2.4c0.6,0.1,2-1,1.6,0.3C70,176.3,71.1,177.7,70.9,179.2z"/>
	<path class="st81" d="M65.9,172.2c-2.9,1.8-4.3-0.6-5.4-2.4c-0.9-1.4-1.4-2.9-3.5-2.6c0.4-1-0.7-3.9,1.9-2.2
		c2.6,1.6,4.7,4.1,7.1,6.2C66,171.5,66,171.9,65.9,172.2z"/>
	<path class="st85" d="M77,193.2c4.5,2.2,2.9,5.7,1.9,9C77.9,199.3,76.9,196.3,77,193.2z"/>
	<path class="st59" d="M89.9,225.2c-3.1-1.3-4.1-3.9-4-7l0.2-0.2c2.7,1.6,5.1,3.3,4,7L89.9,225.2z"/>
	<path class="st84" d="M228,155.2c1.1-2.2,2.4-3.6,5.2-4.5c4.3-1.2,4.7-5.8,5.7-9.6V141c1.8-0.9,2.5,0.2,2.7,1.8
		c-1.1,4.6-0.2,9.5-1.9,14c-0.9,2.5-1.7,5-5.2,4.9c-2.5-0.1-3.1,3.1-5.4,3.6c0,2.3,0,4.5,0,6.8c-0.1,0.8-0.2,1.5-0.3,2.3
		C227.5,168,227,161.6,228,155.2z"/>
	<path class="st63" d="M229.1,165.3c2.1-1.9,3.8-4,7.1-4.6c2.9-0.6,2.9-4.3,3.5-7.1c0.7-3.5-0.8-7.2,1.4-10.5
		c2.1,0.3,1.4,1.7,1.1,2.9c0.1,1.1-1,3.2,1.8,2.2c0.9,2.4,2.8,5.2-1.9,5.7c-0.9,0.1-0.9,0.8-1,1.4
		C240.5,162.7,233.6,162.6,229.1,165.3z"/>
	<path class="st109" d="M242.1,146c-0.4-1-0.7-1.9-1.1-2.9c0-1.4-0.8-2-2.1-2c0.1-5.3,3.4-3.6,6.2-2.8
		C243.3,140.5,244.6,144,242.1,146z"/>
	<path class="st103" d="M114,10.2c-4.2,0.4-9.3-0.6-10.1,5.8c0,0.1-1.2,0.1-1.9,0.2c-0.4-4-3.2-1.6-4.9-1.7
		c-1.7-0.1-1.7,0.3-1.1-1.9c1.9-0.5,3.8-1.1,5.8-1.4c2.4-0.4,2.5-2.1,2.3-3.9c1.6,1.3,2.9,1.5,4.8,0.2c1.2-0.8,3.3-2.5,4.3,0.6
		C113.5,8.7,114.6,9.1,114,10.2z"/>
	<path class="st17" d="M149,6.2c-5.6,3.9-10.7-0.4-16-1C138.1,2.1,144.9,2.5,149,6.2z"/>
	<path class="st20" d="M114,10.2c-0.3-0.7-0.6-1.5-0.9-2.2c1.4-1.5,3-2,5.1-1.2c3.5,1.4,7.3-1.9,10.8,0.4
		C124.2,9.4,119.1,9.8,114,10.2z"/>
	<path class="st47" d="M160.1,10.1c-2.8,1.7-4.7,0.7-6.1-1.9c2-0.5,3.9,1.2,6,0.3C160.7,8.2,160.9,9.5,160.1,10.1z"/>
	<path class="st11" d="M166.9,13.2c0.1-2.1-1.5-3.5-2.4-5.3c2.8-0.7,3.5,1.3,4.3,3.1C168.5,13.7,168.3,14,166.9,13.2z"/>
	<path class="st44" d="M87,24.1c0.9,4.2,0,5-4.2,3.9c0.4-1.9,2.3-2.4,3.3-3.8C86.4,24.2,86.7,24.2,87,24.1z"/>
	<path class="st107" d="M176,283.2c-0.8,0.4-1,1.2-1,2c-1.9,0.6-3.8,1.2-5.7,1.7c-7.1,1.8-11.3-2-10.1-9.4c0.4-2.3,0.5-3.9-1.7-4.9
		c-1.7-0.8-2.7,0.5-3.8,1.5c-1.9,1.6-1.5,3,0.2,4.5c1,0.9,1.4,2,0.2,2.9c-1.5,1.1-4.1,2.7-4.8,1.3c-2.4-4.1-6.4-1-9.1-2.6
		c-1.1-3.9-5.3-5.8-6.4-9.8c-0.3-1.3-1-2.6-0.2-3.8c1.1-1.7,2.3,0,3.5,0c4.9,0.3,9.8,0.5,14.6,0.6c11.9,0,22.4-4.1,32-11
		c0.7-0.5,1.4-0.9,2.2-1c7-0.9,12.2-5.5,17.9-9c1.5-0.9,3.3-1.4,5.3-2.2c0.9,6-2,10.9-2.6,16.3c-0.3,2.7-5.1,3.8-7.7,5.8
		c-3.9,3-7.7,6.3-11.4,9.6C183.8,278.6,180.4,281.6,176,283.2z"/>
	<path class="st45" d="M185,228.1c-4.1,5.4-0.7,10.8,0.1,16.1c-0.1,0.3-0.1,0.6-0.1,0.9c-0.6,0.9-1.5,1.8-2.4,0.9
		c-3.2-3.5-4.2-0.3-5.7,1.7c-2,2.6-1.7,6.8-6.4,7.6c-2.5,0.4-2.3,1.2-3.6-1.8c-0.2-2.1,1.1-3.8,1.6-5.8c1-1.9,2-3.9,2.5-6
		c0.6-1.5,0.8-3.5,2.6-4c4.1-1.3,2.8-3.7,1.3-6.9c-1.5,3.5-3,5.4-5.9,1.5c-1.5-2-4.4-2.2-4.3,2c-0.2,1.3,0.3,2.5,0.5,3.7
		c-0.1,0.4-0.4,0.8-0.7,1.1c-2.3,0.2-4.6,1.2-6.9-0.2c-0.3-0.2-0.1,0.3-0.1,0.4c0.1,0.9-0.1,1.6-0.8,2.2c-0.4,0.2-0.9,0.1-1.3-0.1
		c-1.8-1.4-1.7-3.3-1.6-5.2c0.1-1.7,0.1-3.2-1.5-4.2c-1.3-1.5-3.8-2-3.6-4.6c1.4-1.2,3.1-0.4,4.6-0.7c1.1-0.2,2.7,2.2,3.4-0.3
		c0.8-3.2,3.5-4.1,6-5.2c0.5-0.1,0.9,0,1.2,0.3c3.8,3.9,8.1,0.4,12.1,0.8c0.9,0.1,2.4-1.4,2.4-0.9
		C178.4,225.7,183.4,225.4,185,228.1z"/>
	<path class="st101" d="M168,253.2c0.2,0.8,0.1,2,0.6,2.3c1.1,0.7,1-1,1.4-1.1c5.4-2,5.4-7.9,8.3-11.6c1.5-1.8,2.2-0.5,3.1,0.4
		c1,1.1,1.2,3.4,3.6,2c-0.6,0.8,1.9,3.7-2.2,2.4c-2.5-0.8-2.5,2.6-2.8,4.6c-1.6,2.2-2.2,0.8-2.9-0.9c-0.8,1.6-0.6,3.7-2.1,4.9
		c-0.3,0.3-0.7,0.7-1,1c-2.5,1.1-5.6,0.6-7.3,3.2c-0.5,0.5-1,1-1.6,1.3c-2.4-0.4-5,3.4-7.3-0.2c0.5-2.8,1.2-5.4,4.9-5.2
		c0.4-0.1,0.8-0.2,1.2-0.4C165.4,255.3,165.6,252.5,168,253.2z"/>
	<path class="st60" d="M136,262.2c-0.3-0.7-0.7-1.3-1-2c0.4-4.3,4.9-2.1,6.7-4.4c1,0,1.8,0.3,2.6,0.8c1.1,2.3,6.1,2.8,3.5,6.9
		c-2.9-0.4-6.4,2.2-8.7-1.4C138,261.6,137,261.5,136,262.2z"/>
	<path class="st60" d="M158,261.2c2.3,2.8,4.6-2,7,0c0.5,1.1,1,2.1-1,2c-4.7,0.7-9.3,1.3-14,2c-0.2-0.3-0.3-0.5-0.3-0.8
		c0-0.3,0.1-0.5,0.1-0.5c0.4-0.7,0.8-1.4,0.9-2.3c0.1-1.3-0.7-4,1.1-3.6c2.2,0.5,5-0.5,6.6,1.8C158.7,260.2,158.4,260.8,158,261.2z"
		/>
	<path class="st56" d="M197.1,277.2c1.6,4-2.1,5.4-4.1,7.2c-2,1.8-0.4-3.4-2.9-2.1C190,277.2,194.6,278.7,197.1,277.2z"/>
	<path class="st60" d="M175,256.2c0.1-1.3,0-2.6,0.3-3.8c0.4-1.5,0.2-3.9,2.1-3.9c2.8,0.1,0.3,2.2,0.7,3.3c0.5,1.3,1.2,0.5,1.9,0.4
		C180,255.6,176.7,254.9,175,256.2z"/>
	<path class="st34" d="M164,263.2c0.8-0.4,1-1.2,1-2c0.3-0.3,0.7-0.7,1-1c1.9-1,3.4-4.3,6-1C170.7,263.2,167.7,263.9,164,263.2z"/>
	<path class="st56" d="M202,275.2c-1.3,0.3-2.7,0.6-4,1c0.2-4,2-6.1,6.3-4.9C204,272.8,203.6,274.4,202,275.2z"/>
	<path class="st34" d="M150,264.2c0,0.3,0,0.7,0,1c-2.4,0-4.9,0-7.3,0c-2.1,0-3.5-0.7-3.7-3c2.8,2.1,6.1,0,9,1
		C148.9,263.1,149.5,263.4,150,264.2z"/>
	<path class="st60" d="M172,259.2c-2.4-2-3.8,1.8-6,1c1.2-4.8,5.1-2.7,8-3C173.3,257.8,172.7,258.5,172,259.2z"/>
	<path class="st39" d="M147,102.2c3.5,0.2,6.1-1.1,8-4c1.3-2.4,3.5-3.4,5.8-4.4c2.5-1.1,3.3-2.7,1.5-5.1c-1.7-2.4-2.6-5-2.3-8
		c0.4-3.6-3.5-5-3.9-8.4c-0.4-3.9-4-3.8-7-4.1c-2.5-0.3-4.5-1.6-5.7-3.6c-2.3-3.7-5.4-5.2-9.6-4.7c-1,0.1-2.2,0.1-2.7-0.8
		c-0.7-1.3,0.4-2.3,1.3-2.9c2.9-1.8,3.9-3.8,1.4-6.8c-1.4-1.7-0.5-3.8-0.1-5.8c0.6-2.4,0.1-3.8-2.7-4c-7.5-0.6-14.8-0.4-22.1,1.5
		c-0.7,0-1.3,0-2,0c2.4-4.8,7.4-2.5,11.1-3.9c9.8-3.6,19.9-1.7,29.8,0c3.4,0.6,6.4-1.2,9.7-0.8c4.3,0.5,7.8,3.4,11.8,4.6
		c1.9,0.6,3.7,1.3,5.5,2c3.9,2,6.5,5,7.8,9.1c0,1.6-0.9,2.4-2.3,2.8c-0.7,0.2-1.8,0.4-1.2,1.6c2.3,4.3-1.3,4.8-3.6,4.8
		c-4.2,0-8.3,2.4-13,0.5c1.2,3.2,4,3.6,5.8,5.2c2.2,1.9,3.4,3.8,0.8,6.2c-1.7,1.6-1,2.8,0,4.7c2.7,5.4,3.3,11.5,4,17.4
		c0.2,1.7-1.5,2.4-3.1,2.7c-1.8,0.3-3.6,0.7-5,2c-0.4,0.3-0.8,0.5-1.2,0.6c-1.5,0.5-3.5-0.4-4.5,1.5c-0.3,0.3-0.6,0.6-1,0.8
		c-2.5,1.3-5.3,1.8-7.5,3.7c-0.7,0.6-1.5,1-2.5,0.8c-0.4-0.2-0.8-0.5-1-0.9C146.9,105.3,146.2,103.8,147,102.2z"/>
	<path class="st127" d="M221,139.2c0,1.7,0.2,3.2,2,4c0.7,1.9,1.3,3.9,0.4,5.9c-1.5,2.2-3.5,3.9-5.6,5.5c-0.5,0.5-1.1,0.8-1.7,1.2
		c-2.8,0.8-2.1,4.3-4.2,5.7c-0.5,0.1-0.9-0.1-1.3-0.4c-1.8-2.3-0.9-5.1-1.3-7.7c-0.2-1.5,0.5-2.3,2.3-2.4c6.5-0.3,8.1-3.7,5.2-9.3
		c-2.4-4.5-4.4-9.1-8.9-11.9c-0.4-1-1.2-1.6-2.1-1.9c-3.1-0.7-4.5-2.1-3.5-5.5c0.5-1.8-1-3.3-2.4-4.6c-1.9-1.7-2.7-3.4-0.2-5.2
		c1.7-0.5,3,0.8,4.9,1.1c0.4-2.5-0.9-4.2-2.6-5.7c-3.1-4-7.1-7.2-10.5-10.8c-0.1-1.2,0.7-2.2,1.1-3.8c-4.8,1.7-8.2-1.5-11.9-3.2
		c-1.6-0.7-2.8-2.3-1.9-4.1c1.9-3.7-0.5-5.5-2.9-7.4c-1-0.8-2.5-1.4-2-3.1c0.4-1.6,2-1.7,3.3-1.8c3.5-0.2,6.3-2,9-3.9
		c3.7-2.5,4.8-2.1,6.9,1.8c0.6,1.1,0.8,3.3,2.4,2.2c1.7-1.1,0.1-2.7-0.8-3.8c-2.5-3.2-4.8-6.4-4.1-10.8c0.2-0.2,0.3-0.3,0.5-0.5
		c3.9,3.1,5.9,7.6,8,11.9c2.4,4.9,4.4,9.9,6,15.1c0.6,2,5.4,2.9,2.8,4.4c-2.6,1.5-6.7,2.9-10.4,1c-0.5-0.3-0.8-1.1-2.4-0.2
		c2.4,2.2,2.8,6.9,8,3.2c1.7-1.2,3.8-0.3,4.8,2c2,4.9,4.5,9.6,4.3,15.1c-0.1,3.3,1.3,6.2,2.2,9.1c1.3,4.3,1.4,8.8,2.7,13
		C217.6,135.9,218.7,138.1,221,139.2z"/>
	<path class="st1" d="M116,34.2c5.9-3.1,12.2-2.4,18.5-2.7c4.8-0.2,9.4,0.1,14,1.4c0.6,0.2,1.4,0.4,1.9,0.2c8.9-4,16.6,1.1,24.7,3
		c3,1,5.9,2.3,7.9,5c4.9,4,8.5,9,12,14.1l0,0c0.5,0.7,0.6,1.4-0.1,2.1c-3.8-3.2-6.8-7.1-9.9-10.9c-4.9-6-12.1-9.6-19.8-11.1
		c-4.7-0.9-9.4-1.9-14.5-1.3c-5.3,0.7-10.9,0.5-16.4-0.6C128.3,32.2,122.1,33.9,116,34.2z"/>
	<path class="st121" d="M195,57.2c0-0.7,0-1.4,0.1-2.1c5.3,4.8,9.4,10.4,11.9,17.1c-0.1,2.8,1.6,5.1,2.2,7.6c0.4,0.5,0.3,1-0.2,1.4
		C204.3,73.3,199.6,65.2,195,57.2z"/>
	<path class="st106" d="M208.9,81.3c0.1-0.5,0.1-0.9,0.2-1.4c4.8,6.3,5.1,13.8,5.9,21.2C211.8,94.9,208.8,88.6,208.9,81.3z"/>
	<path class="st127" d="M182,52.2c-1.8-3.4-4.7-5.9-7-9c0.9-0.3,1.8-1.3,2.7-0.3c4.5,5.4,8.9,10.8,13.4,16.3l0,0
		C185.7,59.8,184.4,55.2,182,52.2z"/>
	<path class="st104" d="M224,184.2c-3.6-1.6-3-6.8-6.9-8.1c2-3.2,0.5-5.5-2.6-7.2c5.5-3.7,5.5-3.7,6.7-12.1c0.2-0.4,0.4-0.8,0.7-1.2
		c0.6-0.7,1.3-1.3,2.2-1.6c1.6,2.2,0.3,4.6-0.1,6.7C222.5,168.6,224.4,176.4,224,184.2z"/>
	<path class="st49" d="M224.1,154c-0.3,0.8-0.2,1.7-1.2,2.1c-1.6-0.5-2.8-1.3-1.7-3.1c0.7-1.2,0.4-2.6,0.9-3.8c1.7-1.8,0.7-4,0.9-6
		c0.4,0,0.7,0,1.1,0C225.2,146.8,224.4,150.4,224.1,154z"/>
	<path class="st121" d="M195.1,55.1c-5.4-3.5-7.7-9.7-12-14.1C188.4,44.6,193.7,48.2,195.1,55.1z"/>
	<path class="st73" d="M109,41.2c5-3.3,10.8-2.3,16.2-3c1.3-0.2,2.6,0.1,4,0.2c6.8,0.5,6.8,0.5,5.4,7.5c-0.2,1-0.9,2.1,0,2.8
		c6,4.8,1.3,6.8-2.4,9.1c-0.2,0.1-0.3,0.5-0.7,1.3c5.7-1.2,10.3-0.3,13.2,5.2c1.2,2.3,3.6,3.2,6.4,3c4-0.3,6.7,1.2,6.6,5.8
		c0,0.2-0.1,0.4-0.1,0.5c6.1,3.5,1.9,11.4,6.7,15.7c3.1,2.7-0.4,4.8-2.2,5.5c-2.5,0.9-4.6,2.6-7.1,3.5c0.4-2.1,0.9-4.2,1.3-6.3
		c-1.1-0.9-2.6,0.8-3.6-0.3c-3.4-3.9-5.9-2.2-8.6,1.1c-1.7,2.1-3.6,4.7-7,2.2c-0.2-0.1-0.6-0.1-0.9,0c-1.7,0.5-1.4,4.5-3.4,3.2
		c-5.9-3.7-14.2-1.7-18.6-8.4c-0.8-1.2-1.5-2.1-0.2-3.4c2.3-2.2,6.9-2.2,8.5,0.1c0.7,0.9,0.8,2.3,1.5,3.1c0.8,0.9,1.1,3.5,3.2,1.8
		c1.2-1,2.3-2.5,1.1-4.4c-2.3-3.6-4.3-6.7,1.5-9.5c3-1.4,1-4.1-1.3-5.2c-2.7-1.3-2.5-2.2-2.4-5.5c0.2-5.8,3.3-11,2.3-16.8
		c-0.5-2.9,2.2-6-0.1-8.6c-2.5-2.8-5.6,0.9-8.5-0.3C116.2,39.5,112.6,42,109,41.2z"/>
	<path class="st30" d="M99.1,152.2c1-0.1,2.1,0.2,2.8-0.9c0.9-2.1,2.9-1.8,4.6-2.2c9.7-2.5,18.3-6.7,23.4-15.9
		c0.7-1.3,1.8-2.9,0.9-4.2c-3.3-4.4-2.4-9.8-3.9-14.7c-0.7-2.4-1.6-3.9-4.3-3.8c-2.8-0.5-5.5,1.1-8.3,0.1c-1.2-1.2-0.1-1.8,0.7-2.4
		c0.3,0,0.6,0,1,0c5.6-0.6,11.3-2.9,16.3,2.1c1.5,1.5,3.3,0.3,5.1-0.4c3.4-1.4,6.4-4.2,10.6-2.7l0.1,0.1c0.2,0.3,0.4,0.8,0.2,0.9
		c-4.4,4.4-2.7,8.9-1.2,14.1c1.7,5.9,2.3,12.2,3.4,18.4c0.7,4,3.5,6.6,6.8,8.7c3,1.9,5.9,3.9,7.4,7.3c-0.7,5.4-5.3,3.2-8.2,4.2
		c-0.6,0.3-1.1,0.8-1.6,1.2c-0.5,0.5-1,1-1.5,1.4c-3.7,2.7-7,5.7-12.3,4.6c-1.8-0.4-4.2,0.2-6,1.7c-0.9,0.7-1.7,1.5-2.7,2.1
		c-0.9,0.6-2,1-2.9,1.7c-1.4,1.2-0.7,2,0.6,2.5c3,1.1,2.4,3.1,0.8,4.5c-2.2,1.9-3.9,5.2-7.8,4.1c-1-1.1-0.7-2.3,0.1-3.1
		c2.6-2.8,1.6-5.5-1-7.1c-2.5-1.6-3.5,1.4-4.9,2.9c-0.5,0.5-0.8,1-1.4,1.3c-3.1-1-3.3-5-6.2-6.2c-0.6-2,0.4-3.5,2.2-3.6
		c4.2-0.3,8.4-0.2,12.6-0.7c0.8-0.1,1.3,0.8,2,1.3c3.4,0.5,4.4-2.7,6.5-4.2c2.8-2.6,5.9-3.5,9.6-2.5c2.3,0.6,4.6,0.5,6.3-1.7
		c1.8-2.3,0.6-4.2-0.4-6.4c-2.3-5.4-2.6-11.2-4-16.8c-1.1-4.4-3.1-8.8-3.1-13.5c0-2.9-3-3.3-4.7-4.7c-1.2-1-2,0.5-2.5,1.5
		c-1.1,2.1-0.6,4.2,0.3,6.2c1.5,3.4,2.2,7,1.8,10.7c-0.7,5.7-4.5,9.1-10.3,9.2c-4,0-6.8,2.5-9.6,4.7c-4.5,3.4-9.2,4.4-14.5,2.8
		C100.5,154.1,98.9,154.2,99.1,152.2z"/>
	<path class="st130" d="M94,107.2c-0.5,0-1,0-1.5,0c-5.6-0.1-6.7-1.8-3.6-6.5c1.8-2.8,4.9-5.1-1.3-5.9c-1.2-0.2-1.3-1.6-0.3-2.3
		c3.8-2.4,5.1-7.5,9.8-9.1c1.6-0.6,2.6-1,3.9,0.2c0.8,0.7,2.2,1.1,1.5,2.7c-0.7,1.7-1.8,2.2-3.6,1.5c-1.8-0.7-2.8,0.7-3.5,2
		c-0.6,1.1-0.7,2.6,0.5,3.1c1.5,0.7,3.4,2.3,5.1,0.7c2.3-2.1,4.4-0.5,6.5-0.2c1.7,0.2,3,1.1,1.8,3c-2.1,3.3,0,3.6,2.5,3.9
		c1.2,0.1,2.9-0.4,3.1,1.6c0.1,1.6-1.5,1.9-2.5,2.8c-2.4,2.1-5.9,0.8-8.3,2.6C100.7,109.8,97.3,108.8,94,107.2z"/>
	<path class="st73" d="M147.9,107.1c-3.6,1.1-7.2,2.2-10.5,4.3c-1.7,1.1-4.7,2.7-6.8-0.7c-2-3.1-5.5-2.5-8.6-2.5c-2,0-4,0-6,0
		c7.6-3.5,15.5-4.7,23.7-3.5c3.1,0.4,4.5-2.8,7.3-2.5C147.9,103.7,148.1,105.4,147.9,107.1z"/>
	<path class="st125" d="M92.3,109.3c0.3,0,0.5,0,0.7-0.2c2.7-1.2,5.4-1.6,8.1,0c0.3,0.4,0.4,0.9,0.4,1.5c-2.2,2.1-5.2,1.5-7.7,2.1
		c-4.1,0.9-8,1.6-9.6,6.2c-0.2,0.7-1.2,1.1-1.9,1.5c-1.4,0.6-1.1,3.4-3.5,2.8c-1.6-3,0.8-5.6,0.7-8.5c2.4-2.4,5-4.3,8.7-4
		C89.8,110.8,91,110,92.3,109.3z"/>
	<path class="st102" d="M79.1,123.2c1.5-0.9,0.2-3.2,2-3.9c2.1,2.9,5.6-0.2,8,1.8c0.3,2.9-2.5,3.6-3.9,5.3c-1.5,0.4-3.1,0.5-4.1,1.9
		c-0.4,0.6-0.8,1.3-1.2,1.9c-1,0.4-1.8,1.7-3.1,0.7c-0.6-0.5-0.4-1.2,0-1.7c0-1.3,0-2.7,0-4C77.2,124,77.9,123.3,79.1,123.2z"/>
	<path class="st73" d="M101,110.1c-2.5-1.6-5.4-0.4-8-1c0.3-0.6,0.7-1.3,1-1.9c3.3,0,6.7,0,10,0c3.6,1.4,7.3,0.9,11,1
		c-0.3,0.7-0.7,1.3-1,2C109.7,112.6,105.4,111,101,110.1z"/>
	<path class="st73" d="M92.3,109.3c-3.8,2.6-9,2.4-12.4,5.9c-0.6,0.7,0,2.6-1.9,2c-0.7-3.6,2-6.4,7-7
		C87.5,109.9,89.9,109.6,92.3,109.3z"/>
	<path class="st13" d="M78,117.2c0.6-0.7,1.3-1.4,1.9-2c1.7,2.9-2.3,5.2-0.8,8c-0.7,0.7-1.4,1.3-2.2,2C74,122.1,78.9,120,78,117.2z"
		/>
	<path class="st83" d="M77,129.2c0.3,2.5,2.1,0.6,3,1c-1.2,1.1-0.3,4.6-3.5,3.6c-2.1-0.6-1.2-2.3-0.7-3.7
		C76.3,129.8,76.6,129.5,77,129.2z"/>
	<path class="st109" d="M202.9,197.1c-2.2,1.2-3.9,1.6-6.4-0.5c-3.1-2.5-6.3-0.3-8.7,2.4c-0.2,0.4-0.5,0.8-0.8,1.1
		c-3,2.4-6,3.5-9.2,0.4c-1-1.9-3.7-0.5-4.7-2.4c-2.5-5.1,2.6-5.4,5.2-7.7c-4.1-3.6-7.8-0.7-11.5,0.1c-0.5,0.1-0.9,0.1-1.4,0
		c-1.6-3.8-4.3-3.3-7.3-2c-0.3-0.3-0.6-0.7-0.7-1.2c0-1.9-1.2-4.3,1.1-5.4c2-1,4.3,0,6.1,1c6.9,3.9,8.6,3.1,9-4.7
		c0.7-1.1,1.8-1.6,3.1-1.7c0.7,0,1.4,0.3,2,0.7c4,0.3,7.8,2.1,12-0.1c1.8-0.9,3.9,1,4.5,2.9c0.8,2.2,2.5,2.8,4.3,3.4
		C202.1,187.7,204.7,191.8,202.9,197.1z"/>
	<path class="st122" d="M212,161.2c0.9-2.3-0.7-6.2,4-6c3.8,2.1,4.5,5.5,4.1,9.4c-0.1,1.1-0.6,3-1.6,2.8c-5.1-0.9-5.4,4.2-7.8,6.4
		c-2.6,2.4,0.3,5.7,1.4,8.2c1.5,3.5,1.5,6.4-1,9.2c-0.2,1.1,0,2.3-1,3c-1.8-1.4-1.1-3.7-2.6-6c-0.4,3.1,0,5.6-0.4,8
		c-0.2,1.6-0.1,3.9-3,3c0-0.7,0-1.3,0-2c-0.1-1.5-0.6-2.9-0.4-4.4c0.8-7.9-1.1-14.7-8.1-19.4c-0.6-0.4-0.7-1.1-0.9-1.7
		c0.8-2,2.4-1.3,3.8-1.2c2.5,0,5.8,2.1,6.2-2.8c0-0.5,0.7-0.8,1.2-0.7C210.7,167.9,211.1,164.3,212,161.2z"/>
	<path class="st49" d="M211,191.2c3-5-0.4-9.1-2.1-13.2c-1.2-3.2-0.7-4.6,1.7-6.7c2.3-2,3.8-4.6,7.6-5c1.5-0.2,1-4.5,0.2-6.8
		c-0.5-1.5-1.6-2.9-2.5-4.3c0.3-0.3,0.7-0.7,1-1c2.2-0.7,3.1,1.9,5,2c0,1.8-0.1,3.6,0,5.5c0.2,4.2-1.5,6.6-7,6.7
		c2.5,1,4.4,1.4,4.6,3.3c0.2,1.9-0.7,3.5-2.5,4.4c-1.3-3-1.4,0-1.5,0.4c-0.6,3.2,1.2,6.6-0.5,9.7C213.2,187.4,214.1,190.9,211,191.2
		z"/>
	<path class="st88" d="M187.1,199.3c0.2-0.1,0.5-0.2,0.8-0.3c3.7,0.8,4.3,4.9,7.2,6.8c1.6,1-1.1,3.9-1.7,3.8
		c-5.9-1.4-6.4,3.2-7.9,6.7c-0.1,0.3-0.3,0.6-0.5,0.9c-1.7,3-4.8,0.8-7,2c-0.7,0-1.3,0-2,0.1c-0.7-1.8,0.7-2.7,1.6-3.7
		c1.2-1.4,1.8-2.7,0.3-4.2c-0.5-2.2,1.4-3.2,2.2-4.8C181.9,203.7,184.7,201.7,187.1,199.3z"/>
	<path class="st97" d="M194.8,171.2c8.8,5.4,11.5,13.5,10.2,23.3c-0.1,1,0,2-0.9,2.7c-0.4-0.1-0.8-0.1-1.3-0.2
		c-0.3-4.9-2.4-9.2-4-13.7c0.1-0.2,0.3-0.4,0.4-0.5c0.1-0.9,2.3,1,1.3-0.7c-2.7-4.8-7.2-7.4-12.3-9.1c-1.9-1.5-6.4-1.7-4.9-4.8
		c1.5-3.2,4.5,0.1,6.9,0.6C192,169.1,193.9,169.4,194.8,171.2z"/>
	<path class="st37" d="M204.1,199.2c3.9-2.3,0.9-6.1,1.9-9c0.5-1.4-1.3-3.9,1.1-4.1c2.3-0.2,2.3,2.3,2.5,4.2
		c0.1,1.3,0.3,2.6,0.4,3.9c-1.3,4.2-2.6,8.5-3.9,12.7c-0.4,1.2-0.5,3-2.3,2.6c-1.5-0.3-0.9-1.9-0.9-3
		C202.9,204.1,203,201.6,204.1,199.2z"/>
	<path class="st62" d="M201.9,220.2c1.1,3.7-2.3,6.3-2.2,9.8c0,1.2-1.8,1.4-2.9,0.8c-1.3-0.8-3.8-2-2.7-3.3c2.7-3.3,1.4-6.9,2-10.3
		C198.6,217,198,222.9,201.9,220.2z"/>
	<path class="st88" d="M197.4,205.9c2,2,3.5,3.9,2.6,6.3c-0.5,1.4-2.5,0.7-3.1,0.2C194.2,210.2,198.2,208.3,197.4,205.9z"/>
	<path class="st36" d="M178,219.2c2.1-1.6,4.8-0.9,7-2c0,0.4,0,0.7,0.1,1.1c-0.2,1.2,1.2,2.6-0.4,3.5c-1.4,0.8-2.6,0.2-3.3-1.1
		C180.5,219.3,179.3,219.1,178,219.2z"/>
	<path class="st12" d="M178,211.1c3.1,0.1,3.9,1.2,1.8,3.7c-1.2,1.5-2.5,2.9-3.8,4.3c-4.1,0-7.7,3.2-12.1,2.1h-0.4l-0.4,0.1
		c-1,0.7-2,1.3-3.3,1.1c-1.9-0.4-3.8-0.9-5.4-2.3c-1.3-2.3-2-4.5,2-4.6c6.1,2.5,11.6,1.7,16.4-3C174.4,211.8,175.8,209.8,178,211.1z
		"/>
	<path class="st45" d="M189,232.2c-3.5,0.8-4.2-1.1-4-4.1C187.9,228,189.2,229.4,189,232.2z"/>
	<path class="st73" d="M99.1,152.2c6.4,2.7,11.9,2.2,17.5-2.5c2.6-2.2,5.7-5.9,10.8-3.8c2.8,1.1,7.1-3.7,7.6-7.8
		c0.4-3.9-0.3-7.6-2-11.1c-1.6-3.1-1.4-6,1.2-8.7c1.8-1.8,1.6-2.1,4.3,0c7,5.4,4.3,13.1,7.1,19.2c2.6,5.5,1.5,11.9,4.6,17
		c1.5,2.5,1.5,4.6,0,6.9c-1.7,2.5-4.3,3.5-7,2.4c-4.1-1.6-7.1,0-10.1,2.3c0-3.9,1.8-5.8,5.7-6.1c1.7-0.1,3.3,0.4,5,0.1
		c1.4-0.2,3.4-0.2,3-2.3c-0.3-1.5-1.2-2.9-3.5-2.7c-3.1,0.4-6.3,0.1-8.2,3.3c-0.4,0.7-1.3,1.1-2.2,0.9c-3.1-2-4.6,0.3-5.8,2.4
		c-1.6,2.6-3.7,4.5-6.7,4.4c-6.4-0.3-11,1.8-13.3,8c-3.7-0.1-4.6,3.4-6.5,5.4c-2.2,2.3-3.9,4.6-7.7,4.3c-3.6-0.3-4.4,3.3-6.2,5.8
		c0.9-4.1-7.9-4.1-3.6-9.5c3.7,2.3,10.2,1.9,13.4-0.7c0.4-0.3,1.2-0.7,1.1-0.9c-0.9-4.5,2-6.9,4.9-9.5c1-0.9-0.1-1.8-1.1-2.2
		c-3.9-1.7-5.8-4.6-5.4-9c0.1-1.4-1.2-2.9-1.8-4.4C95.4,152,97.2,152.1,99.1,152.2z"/>
	<path class="st72" d="M122.9,109.3c4.1,0.6,7.1,5.1,6.5,10c-0.2,1.7-0.7,3.3,0.3,4.8c1.4,2.2,4.2,4.9,2.9,7
		c-2.2,3.7-4.1,7.8-7.8,10.7c-6.8,5.4-14.8,7.4-22.9,9.5c-5.2-0.9-10.2,0.3-15,2.4c3.2-2.9,6.4-5.4,11-4.6c5.5,0.2,10.7-0.7,15.5-4
		c-6.1-2.7-12.4-1.7-18.5-2c0.1-2.6,2.2-2.1,3.7-2.2c3.8-0.2,7.7-0.4,11.4,0.3c3.1,0.6,5.6-0.1,7.8-2.2c0.7-0.5,1.5-1,2.3-1.6
		c1.3-1.2,2.1-2.8,2.9-4.3c3.7-3.1,3.9-6.4,2-10.9C123.4,118.4,124.9,113.5,122.9,109.3z"/>
	<path class="st73" d="M79,180.2c-1,0-2,0-3,0c1.2-2.1,1.2-4.4,0.7-6.7c-0.4-1.7,0.7-2.7,2.1-2.8c1.7,0,1.3,1.7,1.2,2.7
		C79.8,175.7,79.3,177.9,79,180.2z"/>
	<path class="st70" d="M89.8,143c-1-0.1-1.9,0-2.4,1c-1.8-1-0.3-2-0.1-3.1c1.2-1.6,2.9-2.6,4.7-3.6c4.9-2.7,9.2-6.6,15.1-7.3
		c0.8-0.1,1.5-0.1,2.3-0.1c3.6,0,7.3,0.3,10.4,2.2c1.6,1,3.8,2.2,1,4.4c-2.2-0.2-4.1-0.7-5.8,1.9c-1.7,2.7-5.5,1.4-8,2.7
		c-5.4-2.4-10.3-0.7-15.2,1.7C91.2,142.9,90.5,142.7,89.8,143z"/>
	<path class="st129" d="M81.2,128.3c-0.1-3.1,2.4-1.7,3.8-2.1c5-4,10.9-4.8,17-4c1.3,0.2,2.5,0.7,3.8,0.9c0.3,0.1,0.7,0.1,1,0.2
		c1.5,0.8,4.4,0.4,4,2.7c-0.3,1.8-2.7,2.1-4.6,1.9c-0.5-0.1-0.9-0.4-1.2-0.9c-4.3-3.3-8.6-0.5-12.7,0.5c-2.2,0.5-4,1.8-6.2,0
		C84.4,126.1,83,129.2,81.2,128.3z"/>
	<path class="st29" d="M89.8,143c3.1-1.5,6.8-1.9,8.8-5.5c1-1.8,2.6-0.9,3.4,0.6c1.1,2.3,3.1,2,5,2c4.1,0.4,7.9-2.8,12.1-0.8
		c-2.2,3.3-5.3,3.9-9,3.4c-5-0.7-10.1-1.3-15,0.5C93.3,143.1,91.6,143,89.8,143z"/>
	<path class="st71" d="M106.9,131c-5.7,0.8-9.7,5.1-14.8,7.2c-1.7,0.4-1.5-0.8-1.6-1.8c1.8-4.9,6.8-5.4,10.5-7.7
		c1.3-0.6,2.6-1.1,3.9-1.7l0.1,0.3C105.7,128.5,107.5,129.2,106.9,131z"/>
	<path class="st128" d="M101,128.7c-3.1,2.9-7.3,4.2-10,7.5c-1.3,0.6-2.3,0.5-2.2-1.3C92,131.2,96.3,129.5,101,128.7z"/>
	<path class="st29" d="M88.8,135c0.4,1,1.3,1.2,2.2,1.3c0,0.9,0.2,1.6,1.1,2c-1.3,1.1-2.6,2.1-3.9,3.2c-1.5-1.5-1.1-3.4-1.2-5.3
		C87.6,135.8,88.2,135.4,88.8,135z"/>
	<path class="st89" d="M87,136.2c1.5,1.5,1.4,3.4,1.2,5.3c-0.3,0.8-0.5,1.7-0.8,2.5C84.9,141.5,85.7,138.9,87,136.2z"/>
	<path class="st6" d="M110,172.2c4.7-0.8,3.5,4.5,6,6c1.1,1.6,0.9,2.9-1.1,3.5c-4-1.9-7,0.2-10,2.3c-6,4.1-8.9,9.7-8.2,17
		c0.1,1.2,0.3,2.3-0.8,3.2c-2.7-1.6-1.6-6.2-5.5-6.9c-0.4-0.1-0.3-1.5,0.4-1.6c4.8-0.8,2.5-5,3.4-7.6c0.4-1.2-1.3-3,1.6-2.2
		c2.5,0.7,2.3-1.9,3.4-2.9c3.4-2.8,6.6-5.9,9.9-8.9C109,173.3,109.3,172.6,110,172.2z"/>
	<path class="st35" d="M95.9,204.2c-2.1-7.9,0.6-14.3,6-19.9c0.9-1,1.9-1.1,3-1.2c0.8,1.6-0.5,2.7-1.1,3.9
		c-4.8,4.5-6.8,9.8-5.1,16.4c0.4,1.7,0.7,3.2,2.7,3.6c1,0.8,1.5,1.9,1.7,3.2c0.2,3.6-0.2,7.4,2.8,10.2c-0.1,3.8-2.7,6.2-5,8.7l0,0
		c-1.4-1.4-2-3.1-1.1-5c-0.8-2.4-4-3.2-3.9-6.1c2.1,0.1,4.1,0,4.7-2.4c0.5-2.3-1-3.5-2.9-4.5C94.9,209.6,97.8,206.2,95.9,204.2z"/>
	<path class="st55" d="M110,172.2c0,0.8-0.2,1.6-1,2c-0.7,0-1.3,0-2,0c2.1-7.9,3.2-8.8,11.2-9c3.5-0.1,6-1,7.9-4.5
		c2.7-4.9,5-5.1,6.9-1.6c-2.1,4.2-5.6,7.5-7,12c-2.6-4.7-6.3-0.5-9.5-1.1C114.6,169.7,110.6,167,110,172.2z"/>
	<path class="st49" d="M89,204.2c-1.8-0.1-2.6-1-3.1-2.7c-0.9-3.4-2-6.8-3-10.2c2.1-0.2,3,1.1,3,2.9C85.9,197.9,87.3,201.1,89,204.2
		z"/>
	<path class="st53" d="M91,215.2c0-0.3,0-0.7,0-1c2.5,0.2,3.6,2.2,5.1,3.8C92.7,220.1,91.8,217.8,91,215.2z"/>
	<path class="st0" d="M142,256.2c-1.4,0.4-0.6,5.4-4.1,1.8c-0.7-0.7-1.8,1.6-2.9,2.2c-2-2-4.9-0.8-7-2.1c0-0.8-0.2-1.6,0-2.4
		c0.2-0.9-1.8-1.5-0.6-2.2c0.5-0.3,1.7,0.5,2.6,0.7c2-0.6,4.1,1.8,6-0.4c1.4-0.7,3.3,1.2,4.4-0.9C142.1,253.4,143,254.3,142,256.2z"
		/>
	<path class="st7" d="M165.9,190.1c7.6-4.3,11.9-3.9,14.7,1.1c-2.1,2.4-9,0.4-6.6,6.9c-0.2,0.4-0.6,0.6-1,0.7
		c-1.4,0-2.8-0.5-4.1,0.3c-0.8,0.4-1.6,0.6-2.5,0.4c-4.5,1-9.4-1-13.7,2c-0.5,0.4-1.3,0.4-1.9,0.3c-5.1-1.4-7,1.1-7.2,5.8
		c-0.2,0.4-0.6,0.7-1,0.9c-0.2,0-0.4,0-0.5-0.2c-3.6-5.1-5.5-5.6-11.4-1.7c-1.8,1.2-2.6,0.4-3.9-0.4c-0.3-0.5-0.7-1-0.9-1.6
		c-0.6-1.5,4.4-1.4,1.1-3.6c-1.6-1.1-3.5-2.1-5.1,0.3c-0.3,0.4-0.7,0.6-1.1,0.9c-1,0.7-2,1.2-3.1,1.5c-1.3,0.3-2.9,0.8-3.7-0.5
		c-0.9-1.5,0.6-2.3,1.5-3.2c1.7-1.2,3.1-2.7,4.3-4.3c0.3-0.3,0.7-0.6,1.1-0.8c0.9-0.2,1.8-0.1,2.7-0.4c5.5-4.3,8-4.4,11.4-0.4
		c-1.6,2.2-5,0.2-6.8,3.3c7.5,1.5,14.6,2,21.1-2.3c3.3-2.1,6.4-3.8,10.6-3C162.1,192.5,164.5,192.1,165.9,190.1z"/>
	<path class="st117" d="M116.9,244.3c-0.6-0.1-1.2-0.2-1.8-0.3c0.3-1,0.6-1.9,0.8-2.9c-0.6-2.6,1.1-3.3,3.1-3.9
		c3.6-3.1-0.9-6.2,0.4-9.3c-4.2,5.1-3.9-0.8-5.5-1.8c-0.3-2.9-0.1-5.5-2.9-8c-2.1-1.9,0.5-5.4,1.2-8.2c0.3-1.3,1.3-2.5,2.9-0.9
		c1.1,2.7-0.5,6.1,3.3,8.1c1.5,0.8-0.1,3.3-1.3,5c2.3-1.5,4.3-1,6.2,0.5c2.5,0.2,5.1-0.2,6.8,2.2c0.4,2.7,1.1,5.3,1.3,8
		c-1.1,1.6,2.7,6.3-3.1,5c-1-0.5-1.4-1.5-1.8-2.5c0.4,3.1-4.8,0.9-4.2,4.6C123.1,244.2,120.5,245.1,116.9,244.3z"/>
	<path class="st110" d="M117,200.2c-0.9,0.6-1.8,1.2-2.7,1.9c0.2,0.3,0.4,0.5,0.6,0.8c2-0.2,4.1-0.4,6.1-0.6
		c0.4,0.2,0.9,0.3,1.3,0.5c-3.5,2.2-0.6,2.6,0.9,3.5c0.9,0.5,1.7,1.1,1.3,2.4c-4.8,0.7-9.9-4.1-14.6,0.6c-2.6,0.9-5.2,1.5-7.9,1
		c-0.4-0.9-0.8-1.9-1.2-2.8c-1.2-1.7-2.2-3.4,0.3-4.9c1.5-0.9,1.6-2.8,2.5-4.2c1.7-2.4,3.2-4.4,7.1-3.5c2.1,0.5,4.7-1.7,7.3-1.9
		c1.8-0.1,3.9-0.7,3,2.5l0,0C119.3,196.6,118.2,198.4,117,200.2z"/>
	<path class="st139" d="M127,206.2c1.7-0.1,2.6-0.9,4-2c1.8-1.4,5.1-1.8,7.8-2.1c4.3-0.5,2.7,4,4.2,6c0.5,1.3-0.2,2.1-1.2,2.7
		c-5,0.3-9.9,0.2-14.6-1.9C127.1,208,127.1,207.1,127,206.2z"/>
	<path class="st39" d="M123,224.2c-2.7-3.8-4.9-1.1-6.9,0.8c-1.6-1.6-0.5-2.7,0.1-3.8c1.4-2.5,1.4-2.4-1.4-3.4
		c-0.5-0.2-0.9-0.9-1.3-1.3c3-1.9-0.7-5.4,1.7-7.4c1.2,0.9,2.1,2.2,3.8,2.2c2.6,1.4,6.7,0.5,7.6,4.7c0,0.5-0.2,0.9-0.5,1.3
		c-1.5,0.7-2.6-1.3-4.3-0.6C121.4,219.3,125.8,221.2,123,224.2z"/>
	<path class="st64" d="M126,216.1c-1.3-3.1-5.1-2.7-7.1-4.8c2.7-0.1,5.4,0,8.1-0.3c3-0.3-1.1-1.4,0.2-2.1c4.9,0.4,9.9,0.8,14.8,1.1
		c0.6,2.6-0.7,4.1-3,3.8c-4.1-0.4-7.8,0.1-11.2,2.7C127.2,217,126.5,216.6,126,216.1z"/>
	<path class="st16" d="M102.1,210.1c2.5-1.3,5.1-2,7.9-1c0.6,4.4-4.4,6.9-4,11.3C99.6,218.9,103,213.7,102.1,210.1z"/>
	<path class="st33" d="M119,237.3c-1.3,1.1-2.5,2.3-3.1,3.9c-1-1.1-2.3-2.3-1.3-3.9C115.9,235.2,117.6,237.3,119,237.3z"/>
	<path class="st4" d="M90.1,225c-0.1-3-2.7-4.7-4-7c-0.5-0.8-1-1.6-1.9-3c4,1,6.5,2.7,7.3,6.3C91.9,222.9,92.9,224.7,90.1,225z"/>
	<path class="st98" d="M100,224.2c0.4,1.7,0.7,3.3,1.1,5c-1,0.3-1.9,1.4-3.3,0.5C98.4,227.9,99.2,226,100,224.2z"/>
	<path class="st49" d="M130,252.3c-4.6-2.7-4.2-6.8-3-11.1c2.3,0.4,2.5,2.7,3.9,4.2c1.3-1,1.6-2.8,2.9-3.7c3.8,0.1,8.1-1.3,10.5,3.3
		c0.1,2.5-2,4.5-3.4,4.1c-3.7-1.1-3.9,1.9-5.4,3.5C133.6,252.3,131.8,252.1,130,252.3z"/>
	<path class="st12" d="M134,242.2c-1.3,1.7-0.3,5.3-2.9,5.3c-2.3,0-1.6-3.7-3.2-5.1c-0.4-0.3-0.6-0.8-0.9-1.2c0-0.3,0.1-0.6,0.2-1
		c0.3-1.2,0.7-2.3,1.7-3.1c2.6,0.9,2.4-0.4,1.5-2c-0.7-1.1-1.3-1.9,0.7-2.1c0.2,0.1,0.4,0.1,0.7,0.2c1.6,0.7,1.9,2.6,3.5,3.6
		C137.9,238.6,134.8,240.4,134,242.2z"/>
	<path class="st33" d="M128.9,237.2c0.1,1.4-0.5,2.4-1.7,3.1c-0.9-1.7-2.8,0.1-4.2-1.9c0.8,3.9,0.1,6.9-2.8,8.5
		c-1.8,1-3-0.6-3.2-2.5c3-1,5.6-1.9,5.3-6.3c-0.2-2.6,5.4-1.5,4.6-5.8C128.9,233.8,126.2,236.5,128.9,237.2z"/>
	<path class="st77" d="M130,252.3c1.7-1.6,3.3-1.8,5,0c0.8,0.4,1.7,0.8,1,2c-0.2,1.3,0.4,3.5-2.3,2.1c-1.3-0.7-2.5-1.4-3.8-2.1
		C130,253.6,130,252.9,130,252.3z"/>
	<path class="st79" d="M163.9,257.1c-0.3,0-0.5,0-0.8,0c-2-0.4-3.8-1.5-5.7,0.5c-1.5,1.6-3,0.6-3.7-1.2c1.7-5.3-1.2-10.1-1.8-15.2
		c-1.1-2.7-0.5-5.4,0-8c0.2-0.8,0.5-1.4,1.2-1.9c1.6,0.6,2.6,1.3,2.1,3.5c-0.5,2.1-0.5,4.5,0.8,6.5c-0.8,2,1.5,2.5,2,3.9
		c0.1-0.5,0.3-1,0.2-1.4c-0.5-1-3-0.4-2.1-2.6c1.4-1,1.1-2.3,0.7-3.6c-0.3-1.1,0.5-1.7,1.2-1.7c1.7,0,0.4,1.1,0.4,1.7
		c0,0.8,0.7,1.5,1,1c1.8-2.7,3.9,1.2,5.7-0.4c3,1.6,2.1,4.5,2.3,7C167.9,249.7,166,253.4,163.9,257.1z"/>
	<path class="st126" d="M166,245.1c0-2.3,0.4-4.7-1-6.9l0,0c0.3-0.6-0.2-2-1.1-3c0.5-1.8-2.8-4.6,0.8-5.3c2.8-0.5,6.6-0.9,6.8,4.1
		c0.7-0.5,1-0.7,1.2-0.9c0.9-1.2-0.9-3.9,1.6-3.9c2.8,0,2.8,2.9,3.4,4.9c0.6,1.8,0.2,4.6-1.6,4.4c-3.5-0.4-2.9,2.4-4.1,3.8
		c-1.8,0.9-3.3,2-4.9,3.3C166.7,245.6,166.3,245.5,166,245.1z"/>
	<path class="st1" d="M153,227.2c-1.4,1.6-2.6-0.5-4-0.2c-1.4,0.7-2.4,1.6-2,3.3c0.2,2.5,0.2,4.9-2.6,6.2c-3.4,0-5-3.3-7.9-4.3
		c-0.8-2.5,1.3-4.5,1.4-6.8c0.1-0.5,0.3-0.9,0.6-1.3c0.4-0.3,0.8-0.5,1.2-0.6c2,0.3,4,0.1,6-0.1c2.5,0.5,5.6-0.6,7.4,2.4
		C153.4,226.5,153.4,226.9,153,227.2z"/>
	<path class="st94" d="M146,229.2c-0.6-2.1-0.6-2.1,3.1-2.1c0.5,2.1,3.3,2,4,4.1c-0.1,0.6-0.1,1.3-0.2,1.9c-0.5,1.2-1.1,2.4-2,3.3
		c-1.1,1.1-2.3,1.9-3.9,1.3c-2-0.8-0.4-2.2-0.5-3.3C146.3,232.6,147.1,230.8,146,229.2z"/>
	<path class="st121" d="M153,227.2c0-0.3,0-0.7,0-1c0.4-4.3,1.7-5.1,7-4.2c1-0.3,1.9-1.1,3.1-0.7c-1.1,2.5-6,2-5,6.4
		C158.1,228.1,154.7,228.2,153,227.2z"/>
	<path class="st0" d="M166,245.1c0.3,0,0.7,0,1,0c1.2,0.7,1.2,2.1,2,3.1c1.8,2.1-2.2,3.1-1,5.1c-2.3,0.3-1.3,4.1-4.1,3.9
		C163.8,253,167.1,249.4,166,245.1z"/>
	<path class="st79" d="M169,248.1c-2.1-0.1-2-1.6-2-3.1c0.9-2.2,2.2-3.8,5-2.9C171.6,244.5,170.9,246.6,169,248.1z"/>
	<path class="st79" d="M163.9,235.1c1.3,0.6,2.1-3.8,3.6-0.5c1.1,2.2-0.3,3.3-2.5,3.6C164.9,237.1,162.1,237,163.9,235.1z"/>
	<path class="st0" d="M153.9,256.3c4.7,4.1,2.2-2.2,4.2-2.7c1,0.2,1,3.6,3.6,1.3c1.2-1.1,1.1,1.3,1.4,2.2c-3.4-0.8-3,3.3-5.1,4.1
		c-0.1-0.8-0.8-2.2-1.3-1.7c-2.2,2-3.3-0.6-5.1-1.2c-0.6,2.1,3.3,5.6-1.7,6c-0.8-0.1-1.6-0.2-2-1c0.3-3.1-3.6-3.4-4-6.1
		c-1.1-1.3-2.3-2.8-1.3-4.4c1.4-2.2,2.9,0,4.3,0.4c1.4,0.4,2.6-0.2,3.9-0.3C152.7,253.2,154,254.2,153.9,256.3z"/>
	<path class="st79" d="M151,253.2c-2.6,1.8-5.1,3.1-7-0.9c-1.8,1.9,0.2,3.3,0,4.8c-0.8,0-1.6-0.1-2-0.9c0.1-1.5-0.7-2.4-2-3
		c-0.2-2.8,2-4.2,3.9-5.2C148.2,245.6,151.2,248,151,253.2z"/>
	<path class="st12" d="M182,52.2c3.5,1.7,4.8,6.2,9,7c0.7,3.9,1.5,7.7,4.8,10.6c1.5,1.3,2.8,3.1,1.6,5.2c-0.5,1-1.4,2.2-2.7,1.8
		c-2-0.6-2.5-2.3-2.8-4.3c-0.4-2.7-2-4.1-4.4-2c-3.7,3.4-8,5-13.7,4.9c1.9,2.8,5,3,5.9,5.3c0.7,1.7,3.4,3.2,0.2,5.3
		c-1.6,1-0.4,2.8,0.7,3.2c4.3,1.2,7.8,6,12.9,2.6c1.2,2.6-1,3.9-1.6,5.6c-0.6,0.5-1.3,0.8-2,0.8c-5.2-1.3-9.8,0.7-14.4,2.8
		c-0.7,0.4-1.4,0.8-2.1,1c-3.3,0.6-6.6,0.7-9.3-1.8c0.4-1.2,1.5-1.8,2.1-2.6c1.5-2,7.5,2.4,5.5-3.9c-0.8-2.5,1.2-5.7-2-7.6
		c-0.9-0.5-0.7-1.8-0.2-2.8c1.1-2.2,0.4-3.7-1.6-5c-3.1-1.9-2.4-3.9,0.2-5.6c2.6-1.6,2.1-2.7-0.1-4.4c-1.6-1.3-3.4-2-5.1-3
		c-1.7-1.1-2.6-2.9-1.5-4.7c1.4-2.4,2.3,0.2,3.5,0.7c0.6,0.2,1.5,0.8,1.8,0.6c3.2-2.1,7-1,10.4-1.8c2-0.5,3.5-1,1-3
		c-0.8-0.6-2-1-1.5-2.2c0.4-1.2,1.7-0.8,2.6-0.8C180.6,54.2,181.9,54,182,52.2z"/>
	<path class="st8" d="M150.1,106.1c2.2-2.2,5.2-2.9,8-3.7c0.9,2.1-1,2.8-2,3.9c-1.6,1.6-3.2,3.2-2.8,5.8c0.5,3.3,0.4,6.4-0.7,9.6
		c-1.6,4.6-0.8,5.4,3.8,5.3c1.3,0,2.7-0.4,3.1,1.5c0.1,1.2-0.4,2.5,0.6,3.5c1.7,1.9,4.7,1.4,6.3,3.5c0.2,0.8,0.1,1.5-0.4,2.1
		c-0.9,0.6-1.9,0.7-3,0.5c-1.6-0.4-3.2-0.4-4.9,0c-5.7,1.3-5.8,1.3-8.4-4.3c-2.2-8-3.6-16.1-0.2-24.2
		C150,108.5,150.6,107.3,150.1,106.1z"/>
	<path class="st86" d="M150.1,106.1c1.5,1.6,1.1,3.6,0.5,5.2c-2.7,7.4-2.2,14.6,0.3,21.9c-0.5,5,1.8,9,4.6,12.7
		c0.9,1.3,2.7,2.3,1.4,4.3c-5-2.1-7.2-5.9-8.2-11.3c-1.2-6.4-0.2-14.4-3.7-18.9c-5.5-7,1.5-8.7,2.8-12.8
		C148.9,107.1,149.7,106.9,150.1,106.1z"/>
	<path class="st140" d="M152,112.1c-0.5-2.8,1-4.6,2.8-6.4c1.1-1.1,3.3-1.1,3.3-3.3c0.3-0.1,0.6-0.2,0.8-0.3
		c1.4-1.5,3.5-0.9,5.1-1.9l0,0c3.2,0.3,6.5,0.5,9.7,0.8c0.4-0.3,0.9-0.3,1.3,0c-0.2,2.8-2.5,2.2-4.1,2.3c-2.3,0.2-4.6,0.4-6.9,1.1
		c-5.1,1.6-5.8,4.5-2,8.5c-2.1,3-4,3.5-6.5,1.2C154.5,113.2,153.8,111.9,152,112.1z"/>
	<path class="st12" d="M164.1,100.2c-1.4,1.5-3,2.2-5.1,1.9C159,96.9,162.5,101.3,164.1,100.2z"/>
	<path class="st32" d="M209,129.2c0.1,1.5,1,1.9,2.3,2.1c2.2,0.3,3.4,1.8,3.7,4c0.3,2.2,1.2,4.2,2.6,5.8c2.2,2.5,3.8,5.6,1.5,7.9
		c-2,2-4.3,6.6-9.1,2.8c1.4,3.4,0.2,6.5,0.9,9.5c-2.7,4.2-7.8,5.4-11.2,8.8c-1.6,1.5-3.7,0.8-5.6,0.1c-7.4-2.5-14.1-6.6-21.3-9.6
		c-5.3-2.2-6.3-8.4-7.9-13.7c-1.2-3.8-0.5-6.8,2.7-9.2c8,1.5,16.1,0.9,24.1,0.1c1,2,1.1,2.2-1,2.9c-3.2,1-6.3,2.2-9.2,3.8
		c-4,2.1-4.6,4.2-2.2,8c3,4.8,7.8,7.6,12.1,10.9c2,1.6,4.3,1,6.5-1.4c3.3-3.6,3.3-7.3,3.5-12c0.4-7.5-2.3-10.7-8.9-12.1
		c-6.5-0.4-12.9,1.5-19.4,0.3c-1.7-0.3-3.3-0.4-4.4-2c-0.3-3.5,2-4.2,4.7-4.4c3.6-0.2,7.3-0.1,10.8-1c2.1,0,4.2-0.7,6.4-0.2
		c2.2,4.5,7,2.5,10.2,4.1c0.7,0.5,0.2-0.8,0.1-0.2c0,0.3-0.2,0.2-0.5,0c-1.1-0.6-2.3-1.8-1.1-2.5C202.3,130.5,204.8,126.8,209,129.2
		z"/>
	<path class="st123" d="M167,138.3c-3.4,7.4,0.9,13.3,3.8,19.4c0.8,1.7,2.8,2.3,4.1,2.6c7.2,1.3,12.6,6.2,19.2,8.7
		c2.8,1.1,4,1.1,6.3-1.1c2.9-2.9,6.5-5.3,10.6-6.7c0.3,0,0.7,0,1,0c0.6,2.2,1.4,4.5-1.2,6.1c-1.7,1.1-3.1,2.9-6.2-1.4
		c2,6.9,0.6,8.1-4,6c-1.6-0.8-3.8-0.4-5.7-0.5c-3.6-1.2-7.3-2.3-11.6-3.7c1.5,3.1,4.3,3,5.8,4.7c1.1,1.5,0.1,2.1-1.1,2.5
		c-1.8,0.5-3.5,1-5.1,1.9c-0.5,0.1-0.9,0.1-1.4,0c-1.3-0.3-2.5-0.9-3.7-1.4c-6.1-2.3-6.6-3.1-6.8-9.4c0-0.8,0.3-1.6-0.3-2.3
		c-2.6,3.7-5.4,1.6-8.1,0.2c-1.8-2.7-5.3-1.7-7.4-3.6c1.4-1.6,3.3-0.9,5-1c2.1,0,3.9-0.4,4-3c1-0.6,1.5-1.2,0.2-2.1
		c-5.1-3.3-3.3-8.8-4-13.4c-0.2-1.6,0.9-3.1,2.8-3.5c1,0,2,0.1,3,0.1C166.6,137.3,167,137.7,167,138.3z"/>
	<path class="st66" d="M209,129.2c-3.7-0.4-6,3-9.5,3.3c1,2.5,4.3,1.4,5.2,4.4c-3.4-1.7-6.6-2-9.9-1.7c-3.2,0.4-4.1-1.3-3.8-4.1
		c-0.2-2.1,1.7-2,2.8-2.7c1.9-0.8,4.3-0.1,6-1.7c-1.1-1.7-2.3-3.2-4.4-3.5c-1.6-0.4-3.1-0.8-4.7-1c-2.4-1.1-5-1.7-7.4-2.6
		c-0.4-0.4-0.5-0.8-0.5-1.3c0.7-2.1,4.5-2.3,3.6-4.7c-0.8-2.3-3.9-0.8-5.8-1.5c-0.6-0.2-1.2-0.5-1.7-1c3.9-4.1,8.6-2.4,13.1-1.8
		c2,0.3,3.8,2.1,6.1,1.5c0.5,0,1,0.1,1.4,0.3c0.6,0.5,0.9,1.2,0.6,2c-1.1,1.2-1.8,2.2,0,3.5c2.6,2,5.3,4,3.1,8
		c-0.9,1.6,0.6,1.3,1.3,1.6C206.1,127,208.6,126.5,209,129.2z"/>
	<path class="st42" d="M175.1,101.4c-0.4-0.1-0.9-0.2-1.3-0.3c0.4-0.3,0.8-0.6,1.2-0.9c4.9-1.7,10-2.7,15.2-2.9
		c0.6,0,1.1,0.1,1.7,0.1c5,1.8,7.4,6.4,11,9.8c-0.3,1.5,2.2,2.8,0.5,4.3c-1.4,1.2-3,0.7-4.4-0.4l0,0c-6.6-2.4-13.4-1.6-20.2-1.4
		c-0.5-0.1-0.9-0.4-1.1-0.9c3.8-3.5,8.6-2.4,13-2.9c1.6-0.2,3.2,0.5,5,0.4c-5.8-3-11.7-4.7-18-4
		C176.8,102.4,175.8,102.2,175.1,101.4z"/>
	<path class="st23" d="M199.1,111.1c3.8,1.2,4.2-1.1,3.9-3.9c3.2,4,3.2,4,2.5,8.3c-2.1-0.1-3.6-1.5-5.4-2.3
		C199.7,112.4,199.4,111.8,199.1,111.1z"/>
	<path class="st122" d="M222,156.2c-2.5,1.5-3.3-1.5-5-2c1.7-1.7,3.4-3.3,5.1-5c2.4,2-1.7,4.9,0.9,6.9
		C222.6,156.2,222.3,156.2,222,156.2z"/>
	<path class="st32" d="M210.5,125.6c-1.7,0.3-2.8-0.3-3.3-1.9c-0.2-0.6,0.3-1.4,1-1.2C209.6,123,210.8,123.7,210.5,125.6z"/>
	<path class="st128" d="M106.9,131c0.1-1.6-3.4-1.4-1.9-3.7c1.8-0.1,3.5-0.7,5.2-1.7c-1.5-0.5-2.9-1-4.3-1.5
		c-3.1-2.2-6.7-1.2-10.1-1.6c-1.4-0.1-3.5,1.2-4.1-1.4c1.2-1.7,2.9-2.2,4.7-1.9c3.9,0.8,7.8,0.2,11.6,0.6c3.1,0.9,6-0.9,9-1.1
		c1.5-0.1,3-0.1,3.8-1.7c0.7-1.3,2-2.4,0.9-4c-0.9-1.4-2.2-1.1-3.5-1c-4.1,0.5-8.2,0.3-12.4,0.3c-1.8,0-3.7,0.3-5-1.4
		c0-0.3,0-0.6,0-1c4.3-1,8.6,0.1,13,0.1c3-0.1,5.8-1.7,8.9-0.8c1.7,1.4,2.6,2.7,2.7,5.3c0.1,3.1-0.7,6.5,1.7,9.7
		c3.1,4.2-1,6.9-3.3,9.8c-2.3,0.4-2.4-1.7-3.2-3c-1.9-3.1-4.8-3.6-7.8-1.1c-1.3,1.1-3,0-4.1,1.1C108.3,131.1,107.6,131.1,106.9,131z
		"/>
	<path class="st113" d="M126,171.2c-0.6-5.7,3.3-8.8,7-12c2.7-2.1,3.7-7.7,9.2-4.6c0.2,0.1,2.1-3.1,3.8-0.1c0.9,1.7,4.1,2.8,2.5,5.2
		c-1.4,2.2-4.3,2.3-6.7,1.8c-4.3-0.9-7.5,0-8.8,4.7C131.1,168.4,129.7,171.4,126,171.2z"/>
	<path class="st66" d="M163,137.2c-3,4.8-1.9,12.6,2.4,16.3c0.6,0.5,1.1,1.2,1.6,1.8c0.2,0.4,0.2,0.9,0.4,1.6
		c-1.3-0.2-2.3-0.5-3.4-0.7c-2.3-2-4.7-4-7-6c-1-3.3-4.4-4.9-5.7-8.2c-1.1-3-2.3-5.8-0.4-8.8c1.2,3.4,2.3,6.9,7,3.3
		C159.2,135.6,161.5,135.5,163,137.2z"/>
	<path class="st62" d="M134,169.1c1.4-2.9,4.9-2.8,6.4-2.4c5.6,1.7,8.7-2.3,12.6-4.5c0,5.4-4.6,7.7-7.7,11c-0.8,0.9-2.3,1.2-3.2,2.2
		c-1,0.9-2.1,1.7-3.3,2.3c-0.7,0.4-1.7,0.5-2.1,1.3c-1.9,4.5-6,5.7-10.1,6.8c-1.3,0.3-2.5,0.3-3.6-0.5c-0.4-0.4-0.4-0.9-0.1-1.4
		c3.9-0.6,6.1-3.5,8.4-6.5c-2-0.6-4.4-0.7-4.9-3c-0.3-1.7,1.5-1.8,2.7-2.3c2.7,4.1,4.5,0.7,6.4-0.9c0.9-0.7,1.9-1.4,3.5-1.9
		C137,169.6,135.3,170.7,134,169.1z"/>
	<path class="st55" d="M123,184.1c0,0.3-0.1,0.7-0.1,1c-0.2,1.1-1,1.6-2,1.6c-2-2.3-6.9-0.2-7.2-4.9c0.1-0.2,0.3-0.4,0.4-0.6
		c2.1,0,2-1.5,2-3c0.2-1.7,0.8-3.3,2.4-4.1c1.5-0.7,2.7-4.1,4.7-1.1c1.5,2.3,5.4,4.4,2,8C124.2,181.9,123,182.6,123,184.1z"/>
	<path class="st132" d="M141.9,174.9c-0.3-0.6-0.7-1.4,0.2-1.6c5.8-1.5,7.9-6.8,10.9-11c0.4-0.3,0.7-0.7,1.1-1
		c2.3-0.8,4.5-1.5,6.1,1.2c-1.2,2.8-4.4,2.4-6.3,4.2c-1.7,1.7-3.6,3-1.9,5.8c1.4,2.4,0,4.4-1.4,6.4c-1.5,1.5-3.2,0.9-4.8,0.2
		C144.2,178,142.7,176.8,141.9,174.9z"/>
	<path class="st68" d="M134,169.1c2.9,0.3,5.6-2,9.1-0.1c-2.6,1.2-4.8,2.2-7.1,3.2c-3.7,2.1-3.8,2.1-4.2-1.2
		C132.5,170.4,133.3,169.7,134,169.1z"/>
	<path class="st79" d="M131.8,171c0.5,3.4,2.8,0.7,4.2,1.2c-0.7,0.9-1.4,1.7-2.2,2.6c-0.9,1.1-2.1,1.6-3.5,1.2
		c-2.1-0.6-1.1-2.4-1.3-3.7C130,171.9,130.9,171.4,131.8,171z"/>
	<path class="st62" d="M160,163.2c-1.3-2.8-3.7-1.9-5.9-1.9c0.3-0.4,0.6-0.7,0.9-1.1c3.1,0,6.3-0.6,8.1,3c-0.5,0.6-1.1,0.8-1.9,0.7
		C160.7,163.8,160.3,163.5,160,163.2z"/>
	<path class="st20" d="M109,121.1c-5.7,1-11.4-1.5-17,0.1c-1,0.9-2,0.8-3,0c-2.5-1-6.6,4.2-7.9-1.9c1.2-0.1,2.4-0.7,2.9-1.7
		c3.6-7.8,10.6-6.2,17-6.5c5.5,0,11,0.3,16.4,0c2.6-0.1,5.7-1.8,6.4,2.1c0.6,3.2-1.4,5.6-4.4,7c-0.7,0.3-1.6,0.1-2.5,0.1
		c-1.6-2.2,1.5-3,1.3-5.2c-6.4-0.7-12.9-1.7-19.4,0c-1,0.3-2.1,0.3-2.2,1.5c-0.1,1.5,1.2,1.8,2.3,2.1c1.9,0.5,3.9,0.3,5.9,0.5
		C106.4,119.2,108.6,118.5,109,121.1z"/>
	<path class="st51" d="M89,121.2c1,0,2,0,3,0c2.8,1.8,6,0.6,9,0.9c1.9,0.2,4-0.3,5,2c-7.3-2.2-14.2-0.5-21,2
		C84.8,123.3,88.3,123.4,89,121.2z"/>
	<path class="st89" d="M165.9,190.1c-0.3,4.7-4.7,3.9-6.5,3.4c-3.5-1.1-5.8,0.1-8.1,2c-7.1,5.7-15.3,4.1-23.3,3.6
		c-1-0.1-1.9-0.9-1.7-2.1c0.3-1.4,1.3-2.5,2.7-2.6c2-0.3,4-0.1,6-0.1c2.1-2.6,3.4-6.4,8.1-4.6c0.6,0.2,1.4-0.2,1.8-0.7
		c2.6-3.4,6.3-3.1,9.9-3.1c1.2,0.2,2.3,0.4,2.9,1.6c0.1,0.3,0.2,0.5,0.3,0.8C160.5,189.6,163.1,190.2,165.9,190.1L165.9,190.1z"/>
	<path class="st69" d="M157.7,187.4c-0.9-0.4-1.8-0.7-2.7-1.1c-3.2-1.8-4.7-4.2-2.4-7.7c0.8-1.3,0.4-2.6,0.5-3.9
		c1.1-4.2,4.4-4,7.5-3.3c5.1,1,9,4.4,13.4,6.9c1.9,5.3,0.2,8.2-5.3,8.9c-1.3,0.2-2.3,0.6-2.8-1.4c-0.9-3.3-4.4-3.1-6.6-3
		C156.4,182.8,160.3,186.4,157.7,187.4z"/>
	<path class="st79" d="M174,178.3c-3.6,0.1-6.3-2.1-8.9-4c-4.2-3-8.9-2.8-11.1,0.9c-0.8,0.9-0.6,2.1-1.2,3.1c-1,1.7-1.9,1.4-2.8-0.1
		c1-2.1,3-4.2,0.1-6.5c-1.1-0.8-1-2,0-3c2.8-2.8,5.5-5.8,10-5.5c0.3,0,0.6,0,0.9,0c0.8,0.5,1.7,1,1.1,2.2c-1.2,1-2.8,0.7-4.1,1.4
		c1.9,0,4.1,0.6,5.1-1.9c1.5-0.5,2.9,0.5,4.3,0.5c3.4-0.1,4.7,1,3.8,4.7c-0.7,2.8,1,4.6,4,5c1.3,0.2,2.9-0.1,2,2.1
		C176,177.5,175,177.9,174,178.3z"/>
	<path class="st36" d="M162.1,165.1c-0.4-0.6-0.7-1.2-1.1-1.9c0.7,0,1.4,0,2.1-0.1c2.8,1.2,5.7,2.9,7.7-1.2c1.7,0.9,1.3,2.6,1.2,4
		c-0.3,4.3,0.7,7.5,5.8,8c1.4,0.1,2.8,1.6,4.1,2.4c-0.8,1.6-2,2.5-3.9,1.9c-0.3-0.4-0.6-0.7-1-1.1c-0.1-1.6-0.9-0.9-2-0.8
		c-3.5,0.4-6.8-3.4-5.3-6.2c2.1-3.7,0.3-3.8-2.6-4c-1.5-0.1-2.9-0.6-4.4-0.9C162.5,165.5,162.3,165.4,162.1,165.1z"/>
	<path class="st97" d="M178,178.1c1.3-0.6,2.6-1.3,3.9-1.9l0,0c6.7-3.4,14.2-1,16.7,3.6c0.6,1,1.3,2,0.4,3.2l-0.3,0.3
		c-1.7,0.8-4,3.3-3.9-1.3c0-0.5-0.1-1-0.3-1.5c-0.8-1.9-1.7-0.3-4.1-0.5C186.4,179.8,181.9,180.6,178,178.1z"/>
	<path class="st118" d="M187.1,199.3c-1.1,3.3-4.3,5-6.1,7.8c-1.9,0.9-3.2,3.9-6,2.3c-2.2-1.3-2.4-3.4-1.8-5.7
		c1.1-1.9,2.9-2.8,4.8-3.7C181.3,202.1,184.2,201,187.1,199.3z"/>
	<path class="st14" d="M191.4,193.9c-3.1,2.1-5.5,3.7-7.9,5.3c-0.7,0.4-1.5,1.1-2.1,0.2c-0.4-0.6-0.5-1.7-0.2-2.3
		C183.1,192.5,186.6,192.6,191.4,193.9z"/>
	<path class="st7" d="M166,190.1c-3.1,1.4-6.1,2.1-7.9-1.9c0.2,0,0.4,0,0.5-0.1C162.6,183.3,163.3,183.5,166,190.1z"/>
	<path class="st80" d="M178,200.1c-0.4,2.3-2.2,2.6-4,3.1c-0.6,0.3-1.1,0.2-1.5-0.3c-0.8-1.6-1-3.2,0.3-4.7c0.4,0,0.8-0.1,1.2-0.1
		C175.9,197.8,177.6,197.7,178,200.1z"/>
	<path class="st28" d="M172.8,203c0.4,0.1,0.8,0.1,1.2,0.2c0.1,6.6,0.3,6.7,6.9,3.9c-1,1.3-2,2.7-3,4c-1.7,0.7-3.3,1.4-5,2
		c-1.6,1.1-3.3,2.3-5.4,2c-1.6-0.2-3.7-0.8-3-2.5c1.2-3.1-2-2.8-2.7-4.4c-0.2-2.4,2-2,3.2-2.8c1.3-0.7,2.7-1.3,4.1-1.8
		c0.4-0.2,0.8-0.3,1.2-0.5C171.1,203,171.9,202.7,172.8,203z"/>
	<path class="st36" d="M199.1,183.1c-3.4-6.6-8.5-8.7-15.5-6.4c-0.7,0.2-1.2,0.2-1.7-0.4c1.2-3.3,5.6-1,7-4
		c8.3,2.5,12.5,6.5,13.6,13.2C200.9,185.3,200.8,183,199.1,183.1z"/>
	<path class="st31" d="M146,224.2c-2,0.8-4,1.6-6.1,0.1c0.9-1.4,2.8-2.7-0.6-3.5c-4.5-1-9.4-0.5-13.3-3.6c0-0.3,0-0.7,0-1
		c4.1-2.4,7.9-5.2,13.2-3.2c1.7,0.6,2-1.7,2.8-2.9c0.3-0.7,0.6-1.3,0.9-2v0.1c2-1.2,4.3-0.6,6.4-0.7c2.7,0.7,5.6,0.1,8.3,0.7
		c2,0.7,4.6,1.5,4.3,3.9c-0.3,2.4-1.9,4.4-5,4.2c-4.1-0.4-2.1,2.3-2,4C153.2,224.3,149.2,223.4,146,224.2z"/>
	<path class="st83" d="M157,216.2c5.1-4,5.1-4,0.9-7.1c0.8-2.5,2.4-2,4-1c1.2,0.7,2.3,0.8,3.7,0.4c1.2-0.3,2.4,0.4,1.3,2
		c-0.7,1-2.7,1.5-1.4,3c1,1.2,2.7,0.7,4.2,0.5c1.1-0.1,2.2-0.6,3.3-0.9c-3.4,6.3-9.8,4.1-15.1,5.1
		C157.7,218.3,157.3,216.9,157,216.2z"/>
	<path class="st83" d="M146,224.2c2.6-2.3,6.5-1.5,9-4c1.9-0.1,3.6,0.4,5,1.9c-3.1,0.1-5.9,0.7-7,4.2C151.1,224.1,148,226,146,224.2
		z"/>
	<path class="st42" d="M109,131.1c3,0.4,2.3-4.4,5.7-4c3.9,0.4,7.7,0.4,7.9,5.8c0,0.4,0.9,0.8,1.5,1.2c-1,1.4-2,2.7-3,4.1
		c-2,0-1.6-1-0.9-2.2c1.4-0.7,1.8-1.2,0.2-2.3C116.8,131.3,112.9,131.3,109,131.1z"/>
	<path class="st98" d="M120.1,136.1c-0.1,0.9,0.1,1.7,0.9,2.2c-0.7,0.4-1.3,0.7-2,1.1c-4.1-0.3-8,1.7-12.1,0.8
		c2.6-2.2,7.8,0.3,8.8-5.4C116,133.2,118.9,134.5,120.1,136.1z"/>
	<path class="st27" d="M121.1,186.3c0.6-0.4,1.2-0.8,1.8-1.2c1.4,0,2.8,0.1,4.1,0.1c0.4,3.3-3.3,2.8-4.5,4.6c-2.2,1.5-4,3.1-7.1,1.2
		c-2-1.2-4.4,1.2-6.5,1.2c-3.2-0.1-3.5,1.7-4,3.8c-0.2,0.6,0.2-0.1-0.2,0.5c-1.2,2.1-2.4,5.2-5.3,3.8c-2.7-1.2-1.2-4.1-0.3-6.2
		c1-2.5,2.8-4.5,4.6-6.4c0.3-0.3,1.2-0.3,0.7-0.9c-0.2-0.2-0.9-0.1-1.3-0.5c0.6-1.1,1.3-2.1,1.9-3.2c2.7-1.8,4.9-6.2,9-1.9l0,0
		c-0.8,0.9-0.9,2.1-1.9,3.3C115.5,184.5,118.1,186,121.1,186.3z"/>
	<path class="st50" d="M103,186.3c2,0,3-2.4,5.3-2.3c-3.6,5-9.9,8.4-8.9,16.2c2.9-1.3,4.4-2.9,4.7-6c0.3-3.3,2.4-2,4-3.3
		c4.6-3.8,9.8,2.1,13.8-1.8c3.8,2.1,4,2.9,1.1,7c-0.7-0.3-1.3-0.6-2-0.9c-1.8-1.8-6.2-1.4-8.2,0.7c-1.2,1.3-2.1,3.2-3-0.3
		c-0.5-1.8-1.7,0.9-2.6,0c-2.6,3.6-6,6.8-6.4,11.6c-1,0-2,3.5-2.9,0C96.2,199.4,95.9,192,103,186.3z"/>
	<path class="st135" d="M151,253.2c-2.4-6.8-4.6-6.8-11,0c-0.1,5-2.9-0.3-4,1.1c-0.3-0.7-0.7-1.3-1-2c0.9-0.6,1.2-1.6,1-2.6
		c-0.4-2.4-0.9-4.6,2.6-1.9c2.8,2.1,3.9-1.1,5.4-2.5c0-1.1,0.3-2,1.1-2.8c2.4-1.6,5-2.5,7.9-1.3c0.9,3.9,1.8,7.8,2.8,11.6
		c0.4,1.8-0.4,2.8-1.9,3.6C152.9,255.2,152,254.2,151,253.2z"/>
	<path class="st141" d="M123,196.1c0.7-2.5,1.8-5.1-1.1-7c0.2-3.2,4.6-1,5.1-3.9c2.1-2.6,7.3-0.7,7.9-5.1c0.4-2.8,2-2.9,4-3
		c1.6,1,2.5,2.8,1.6,4.2c-1.8,2.9,0.3,4.2,1.8,5.7c1.3,1.3,2.3-0.3,3.1-0.9c2.3-1.5,1.9-3.5,0.7-5.6c-0.4-0.7-0.6-1.5-0.1-2.3
		c1.3-0.4,2.6,1.9,4,0c3.1,1.3,1.9-3.1,4-3c0.1,0.9,0.7,2.4,0.3,2.8c-3.6,3.2-1,5.7,0.7,8.4c-4.2,0.7-8.5,1.3-11.5,4.8
		c-4.4-3.5-5.2,3.1-8.4,3.1C130.2,189.8,126.8,193.8,123,196.1z"/>
	<path class="st41" d="M149,208.2c-2,0.4-4.1,1-6.1,0c-0.4-8.1-0.4-8.3,7.9-7.4c1.5,0.2,1.9-0.9,2.8-1.2c4.3-1.2,8.7-2.6,13.2-0.3
		c0.9,1.7,0.2,3.2-0.3,4.8c-1,2.1-3.6,1.3-5,2.8C157.6,208.8,153.3,208.7,149,208.2z"/>
	<path class="st108" d="M172.8,203c-0.8,0.3-1.5,1.4-2.6,0.8c-2.6-1.4-2.4-3.4-1.2-5.6c1.4-1.7,2.7-0.7,4,0.1
		C172.9,199.8,172.8,201.4,172.8,203z"/>
	<path class="st80" d="M169,198.2c-0.3,2,0.3,3.9,1.2,5.6c-0.1,0.2-0.2,0.3-0.3,0.5c-1.3-0.4-2.7,0.2-4-0.4c0.3-1.6,0.7-3.2,1-4.7
		C167.6,198.9,168.3,198.5,169,198.2z"/>
	<path class="st50" d="M117,200.2c0.6-2.3,1-4.7,4.1-4.9C120.8,197.8,118.8,198.9,117,200.2z"/>
	<path class="st90" d="M126,217.1c4.5,0.8,9.1,1.4,13.6,2.5c1.4,0.4,4.2-0.5,4.2,2.4c0,2.4-2.8,1.1-3.9,2.2c-0.2,0-0.5,0-0.7,0
		c-1.5,0.9-3.3,0.9-4.9,1.5c-1.1,0.1-2.1-0.1-3.2-0.1c-0.4,0-0.8-0.2-1.1-0.5c-2.2-1.4-4.6-1.4-7-1c0-1.6,0.2-3.2-1.5-4.4
		c-1.9-1.3-2.3-3.6-0.8-5.1c1.6-1.5,2.8,0.7,4,1.6C125.1,216.7,125.6,216.9,126,217.1z"/>
	<path class="st135" d="M130,225.2c0.3,0,0.6-0.1,0.9-0.2c2.3-0.1,3.3,1.8,4.5,3.2c1.5,1.7,1,3.9-0.1,5.4c-1.3,1.9-2.8-0.3-4.3-0.5
		l0,0C130.2,230.5,128.7,228.1,130,225.2z"/>
	<path class="st82" d="M131,233.1c1.1-1.9,3,1.8,4-0.6c0.9-2.2-0.3-3.6-1.8-5c-0.8-0.8-1.5-1.7-2.3-2.5c1.1-1.5,2.1-0.2,3,0.2
		c1.7,0.8,3.3-0.8,5-0.1c0.9,2.8-1.7,4.6-1.9,7c2.9,3.2,5.2,6.9,7.9,10.2c0.1,0.2,0.1,0.4,0.2,0.7c-0.1,0.8-0.2,1.7-1.1,2.1
		c-2.3,0.6-3.8-6.4-6.9-0.7c-0.4,0.7-1.1-0.3-1.1-0.9c0-1.5-0.6-2.1-2.1-1.4C136.9,237.9,131.8,236.2,131,233.1z"/>
	<path class="st43" d="M153,241.1c-2.6,0.7-5.3,1.3-7.9,2l-0.1,0.1c-1.3-2.2-2-4.4-1.1-7c2.7-1.8,2.1-4.5,2-7c2.3,2.3,0.3,5.2,1,7.8
		c3,0.1,3.8-2.8,5.9-3.9C153.1,235.7,151.5,238.4,153,241.1z"/>
	<path class="st25" d="M156,241.2c1.7,3.5,2-1.2,3.6-0.4c-0.5,2.1-0.3,4.5-2.2,6.5C158.5,244.9,153.3,244.1,156,241.2L156,241.2z"/>
	<path class="st49" d="M143.9,236.2c1.9,2.1,0.7,4.6,1.1,7c-4.1-2.6-6.1-6.8-8-11C139.2,232.4,141.4,233.8,143.9,236.2z"/>
	<path class="st31" d="M139,225.2c-1.7,0.5-3.3,2.6-5,0.1c1.5-1.5,3.3-1.7,5.2-0.9C139.1,224.6,139,224.9,139,225.2z"/>
	<path class="st127" d="M190.2,97.3c-5,1.4-10.1,2.5-15.2,2.9C179.8,97.5,184.6,95.4,190.2,97.3z"/>
	<path class="st78" d="M152,112.1c1,0.3,1.8-3.1,3.2,0c1.5,3.1,4.2,3,6.8,1.1c5.1-2.2,10.1-4.9,16-4.2v0.4c-0.9,3.6-4.7,3.5-6.9,5.4
		c-1.9,0.8-3.7,1.9-5.7,2.5c-0.6,0.2-1.3,0.3-1.7,0.9c-0.6,0.9,0.1,1.3,0.8,1.2c4.9-1.1,4.5,1.8,3.8,4.9c-0.2,1.4-1.4,2.2-2.4,2
		c-3.1-0.6-4.4,1.8-6.4,3.1c-0.2-0.1-0.4-0.2-0.6-0.3c-1.1-2.8-3-0.7-4.4-0.5c-3.2,0.5-4.2-0.7-3.8-3.7
		C151.1,120.6,154.1,116.7,152,112.1z"/>
	<path class="st66" d="M185.1,132c-3.8,1.1-7.7,1.4-11.6,1.1c-2.4-0.2-3.7,0.9-4.4,3c-1.5,1.2-2.3,0.2-3.1-0.9c-2.6-0.4-5.3-0.4-7-3
		c2.7-2.4,5.9-0.6,8.9-1.2c-0.4-2-1.5-4.2,1.5-5.1c3.4,4,8.1,2.6,12.3,3.2C183.3,129.6,184.9,130,185.1,132z"/>
	<path class="st5" d="M166,135.2c1,0.3,2,0.6,3.1,0.9c4.9,1.5,9.7,2.3,14.9,1.2c2.8-0.6,6.2-1.3,9,0.8l0,0c-8.6,1.5-17.3,2-25.9,0.2
		c-0.4-0.3-0.7-0.7-1.1-1C166,136.6,166,135.9,166,135.2z"/>
	<path class="st78" d="M169.1,126.3c-1.9,2.3-1.1,3.9,2.3,5c-4.8,2.2-8.7,0.1-12.4,1c-1.3-1-1.3-2-0.1-3.1l0.2,0.2
		c2.4,1,4-0.6,5.8-1.7C166.2,126.7,167.1,124.7,169.1,126.3z"/>
	<path class="st67" d="M178,109c-5.4,1.2-10.3,4.2-16,4.2c-1.4-0.4-4.3,0.6-3.7-1.8c0.7-2.7-1.8-6.7,3.3-8c4.4-1.1,9.1-0.5,13.4-2
		c3.8-0.1,8.1-1.2,11.4,0.1c4.1,1.5,9.3,1.6,12.1,6.3C191.5,106.6,184.7,106.9,178,109z"/>
	<path class="st65" d="M192.9,138.1c2,0.2,4,0.2,5.9,0.5c3.3,0.6,5,2.2,3.5,6c-1.2,3.1-0.1,6.3,0.8,9.2c0.8,2.5,1,4.4-1.8,5.8
		c-1,0.5-1.7,1.6-2.3,2.5c-2.2,3.4-6.5,4.9-9.1,2.1c-3.5-3.8-8.4-5.9-11.2-10.4c-3.4-5.4-2.9-7.6,2.1-10.7
		C184.7,140.7,189.3,140.7,192.9,138.1L192.9,138.1z"/>
	<path class="st78" d="M185.1,132c-1-0.6-2.1-1.3-3.1-1.9c0.1-3.3,1.3-5.1,4.8-3.1c2.3,1.3,5.3,0,7.3,2.2c-1,0.6-2,1.3-3.1,1.9
		C189,131.4,187.2,132.6,185.1,132z"/>
	<path class="st112" d="M194.1,129.2c-3-0.7-6.3,1.3-9.1-1.8c-0.8-0.9-2,1.7-2.9,2.7c-2.1,0-4.2-0.1-6.3,0.2c-3.3,0.4-5.6-0.7-6.5-4
		c-2.1,0-2.7,2.3-4.2,2.9c-1.8,0.7-3.9,4-5.8,0c0.5-0.6,1.4-1.3,1.3-1.8c-0.3-2.9,0.5-3.7,3.2-2.2c1.6,0.9,3.1,0.1,4.3-1.1
		c4.2-4.2,9.4-3.3,14.6-3c6.1,2,13,1.9,18.4,6C199.2,129.6,196.4,128.7,194.1,129.2z"/>
	<path class="st133" d="M165.1,116.4c2.1-0.3,3.4-2.8,5.8-2.4c2.6-1.1,5.2-2.5,8.1-2.9c1.8,0,3.6,0,5.4,0c1.7,0,3.3,0,4,2
		c0.9,2.4-1.2,2.6-2.4,3.6c-0.9,0.7-1.8,1.4-3,1.4c-5.4,2.7-11.2,1.8-16.8,1.4C164.1,119.4,164,117.9,165.1,116.4z"/>
	<path class="st53" d="M165.1,116.4c-0.3,3.7,2.5,2.9,4.3,2.6c4.5-0.8,9-0.8,13.5-0.8c0,0.3,0,0.6,0,0.9c-0.1,1.5,2.9,1,1.9,3
		c-0.5,0.9-1.3,0.6-2,0.3c-5.1-0.4-10.1,0-14.9,1.8c-4.2-1.5,0.6-2.4,0.3-3.6c-2.1-1.7-5.5,2.8-6.7-1.2
		C161,117.5,163,116.3,165.1,116.4z"/>
	<path class="st116" d="M182.9,122.3c2.4-3.2-1.6-1.5-2.1-2.9c0.8-0.1,1.5-0.3,2.3-0.4c2.9-0.3,5.5,0.5,7.9,2.1
		c1.6,0.5,2.9,2.8,5,1.1c3.2,0.1,3.9,2.8,5,5C195,125.6,188.9,124,182.9,122.3z"/>
	<path class="st27" d="M179,111.2c-2.4,1.9-5.2,2.4-8.1,2.9c1.8-2.4,5.1-2.4,7.1-4.6c5.6,0.4,11-2.3,16.7-0.4c1.6,0.5,3.2,0.7,4.4,2
		c-1.4,1.6-2.3,2.2-4.8,0.7C189.6,108.8,184.2,109.6,179,111.2z"/>
	<path class="st112" d="M196,122.2c0.3,0.9,1,2.1-0.8,1.8c-1.7-0.3-3.4-1.1-4.2-2.9C192.8,120.6,194.3,121.9,196,122.2z"/>
	<path class="st96" d="M109,121.1c-2.9-2-6.2-0.3-9.2-1.1c-2.1-0.6-5.4-0.1-5.4-3.2c0-2.5,2.6-2.7,5-3.4c6-1.7,11.8-0.6,17.7-0.1
		c1.1,0.1,2.9-0.5,3.4,1.3c0.5,1.6-1,2.3-2,3.1c-0.9,0.6-1.6,1.2-1.6,2.3C114.2,119.5,112,123.4,109,121.1z"/>
	<path class="st69" d="M146,178.1c3.6,6,3,8.4-2,9.8c-3,0.8-3.8-2.5-6.2-3c-1.4-0.3,0.3-2,1.3-2.9c2-1.7-0.3-3.3-0.1-5
		c0.6-1.3,1.6-2,3-2.1C144.1,175,144.8,176.9,146,178.1z"/>
	<path class="st6" d="M121.1,186.3c-3.2,2.3-6.7-2.7-10.1,0.4c-0.6,0.5-1.1-1.3-0.5-2.1c0.9-1.4,2-2.7,3.5-3.4
		c0.2,1.6,0.6,3.1,2.7,2.6C119,183.3,119.8,185.2,121.1,186.3z"/>
	<path class="st40" d="M162.1,165.1c0.3,0.1,0.5,0.2,0.8,0.2c0.7,1.4,1.6,2.9-1.1,2.9c-2.4,0-4.9,0.4-7.6-0.7
		C156.2,164.2,159.4,165.5,162.1,165.1z"/>
	<path class="st100" d="M149,208.2c4.2-1,8.7-0.4,12.8-2.1c1.4-0.7,2.9-0.9,4.3,0.1c-1.4,0.6-2.7,1.2-4.1,1.8c-1.3,0.3-2.9-0.2-4,1
		C155,208.8,151.8,210.8,149,208.2z"/>
	<path class="st92" d="M166.1,206.3c-1.4,0-2.8-0.1-4.3-0.1c0.1-3.2,3.5,0.1,4.1-2.2c1.5-1.8,2.8-1.4,4,0.4
		C169,205.8,167.1,205.3,166.1,206.3z"/>
</g>
</svg>
