<?xml version="1.0" encoding="utf-8"?>
<!-- Generator: Adobe Illustrator 16.0.4, SVG Export Plug-In . SVG Version: 6.00 Build 0)  -->
<!DOCTYPE svg PUBLIC "-//W3C//DTD SVG 1.1//EN" "http://www.w3.org/Graphics/SVG/1.1/DTD/svg11.dtd">
<svg version="1.1" id="Layer_1" xmlns="http://www.w3.org/2000/svg" xmlns:xlink="http://www.w3.org/1999/xlink" x="0px" y="0px"
	 width="1030px" height="685px" viewBox="0 0 1030 685" style="enable-background:new 0 0 1030 685;" xml:space="preserve">
<style type="text/css">
<![CDATA[
	.st0{fill:none;stroke:#9DC6C3;stroke-width:15;stroke-miterlimit:10;}
	.st1{fill:#9FC9C6;}
	.st2{fill:#A9D8D6;}
]]>
</style>
<rect x="-8.5" y="-8.5" class="st2" width="1047" height="702"/>
<g>
	<g>
		<g>
			<path class="st1" d="M748.8,229.6c17.7-8.6,24.9-23.8,24.9-39.7c0-41.4-28.1-59.6-65.7-59.6c-30.3,0-81.7,0-81.7,0
				c-4.8,0-8.9,4-8.9,8.8v181.7c1.1,8.1,7.8,14.5,16,14.9h74.6c39.6,0,71.4-14.6,71.4-60.4C779.3,262.5,771.2,236.9,748.8,229.6z
				 M652.7,174.5c0-4.9,4-8.9,8.9-8.9h46.3c22.9,0,30,15.9,30,25.2c0,17.1-20.5,21-20.5,21c-4.6,1.5-13.5,1-18.3,1h-37.4
				c-4.9,0-8.9-4-8.9-8.8V174.5z M716.6,298.4c-4.9,0.7-12.8,1.3-17.6,1.3h-37.4c-4.9,0-8.9-3.9-8.9-8.8v-35.1c0-4.8,4-8.8,8.9-8.8
				h46.3c14.7,0,31.1,8.9,31.1,27.5C739,293.8,716.6,298.4,716.6,298.4z"/>
		</g>
		<g>
			<path class="st1" d="M863.8,176.7c0-4.8,4-8.9,8.9-8.9h97.6c4.8,0,8.9-3.9,8.9-8.9v-19.8c0-4.9-4-8.9-8.9-8.9H834.2
				c-4.9,0-8.9,4-8.9,8.9c0,0,0,117.8,0,187.8c0,4.8,4,8.8,8.9,8.8h136.1c4.8,0,8.9-4,8.9-8.8v-20.4c0-4.9-4-8.9-8.9-8.9h-97.6
				c-4.9,0-8.9-4-8.9-8.9v-28.9c0-0.5,0-1,0.1-1.5c0.8-4,4.5-7.1,8.7-7.1h93.6c3.8,0,7-2.5,8.3-5.9c0.1-0.5,0.3-1,0.4-1.5
				c0.1-0.6,0.2-1.2,0.2-1.8v-18.4c0-0.5-0.1-1-0.2-1.5c-0.1-0.5-0.2-1-0.4-1.5c-1.3-3.3-4.6-5.6-8.3-5.6h-93.6
				c-4.4,0-8.1-3.2-8.7-7.4c-0.1-0.6-0.1-1.2-0.1-1.8V176.7z"/>
		</g>
		<g>
			<path class="st1" d="M744.2,367.3c0-4.9,4-8.9,8.8-8.9h19.5c4.9,0,8.9,4,8.9,8.9v188.1c0,4.9-4,8.8-8.9,8.8h-5.4
				c-4.9,0-7.7,1.4-14.1-6.8l-93.3-124.6c-2.9-3.9-5.3-3.1-5.3,1.7v120.9c0,4.9-4,8.8-8.9,8.8h-19.6c-4.8,0-8.8-3.9-8.8-8.8V367.5
				c0-4.9,4-8.9,8.8-8.9h12.5c4.9,0,11.3,3.2,14.2,7.1L738.8,479c3,3.9,5.4,3.1,5.4-1.8V367.3z"/>
		</g>
		<g>
			<path class="st1" d="M974.8,545.9c0,7.7-6.3,14-14,14H842.9c-7.7,0-14-6.3-14-14V376.5c0-7.7,6.3-14,14-14h117.9
				c7.7,0,14,6.3,14,14V545.9z"/>
		</g>
		<g>
			<path class="st0" d="M1038.5,564.4c0,22.3-18.3,40.6-40.6,40.6H593c-22.3,0-40.6-18.3-40.6-40.6v-437c0-22.3,18.3-40.6,40.6-40.6
				h404.9c22.3,0,40.6,18.3,40.6,40.6V564.4z"/>
		</g>
	</g>
</g>
</svg>
